M48
; DRILL file {KiCad (6.0.8)} date Wed Nov 16 21:33:02 2022
; FORMAT={-:-/ absolute / inch / decimal}
; #@! TF.CreationDate,2022-11-16T21:33:02-08:00
; #@! TF.GenerationSoftware,Kicad,Pcbnew,(6.0.8)
; #@! TF.FileFunction,Plated,1,2,PTH
FMAT,2
INCH
; #@! TA.AperFunction,Plated,PTH,ViaDrill
T1C0.0157
; #@! TA.AperFunction,Plated,PTH,ComponentDrill
T2C0.0335
; #@! TA.AperFunction,Plated,PTH,ComponentDrill
T3C0.0374
; #@! TA.AperFunction,Plated,PTH,ComponentDrill
T4C0.0400
; #@! TA.AperFunction,Plated,PTH,ComponentDrill
T5C0.0402
; #@! TA.AperFunction,Plated,PTH,ComponentDrill
T6C0.0520
; #@! TA.AperFunction,Plated,PTH,ComponentDrill
T7C0.1180
%
G90
G05
T1
X4.37Y-3.68
X4.5177Y-2.8051
X4.58Y-2.11
X4.8504Y-2.5906
X4.9Y-3.7
X4.9797Y-2.266
X5.3136Y-2.47
X5.77Y-2.14
X5.93Y-3.03
X6.27Y-2.45
X6.8472Y-2.5185
X7.36Y-2.78
X7.52Y-3.79
X7.53Y-2.62
X7.81Y-2.99
X7.9528Y-3.1417
T2
X6.09Y-3.05
X6.09Y-3.35
X6.19Y-3.05
X6.19Y-3.35
X6.29Y-3.05
X6.29Y-3.35
X6.39Y-3.05
X6.39Y-3.35
X6.49Y-3.05
X6.49Y-3.35
X6.59Y-3.05
X6.59Y-3.35
X6.69Y-3.05
X6.69Y-3.35
X6.79Y-3.05
X6.79Y-3.35
X6.89Y-3.05
X6.89Y-3.35
X6.99Y-3.05
X6.99Y-3.35
X7.09Y-3.05
X7.09Y-3.35
X7.19Y-3.05
X7.19Y-3.35
X7.29Y-3.05
X7.29Y-3.35
X7.39Y-3.05
X7.39Y-3.35
T3
X6.28Y-3.58
X6.28Y-3.68
X6.28Y-3.78
X6.38Y-3.58
X6.38Y-3.68
X6.38Y-3.78
T4
X4.62Y-3.95
X4.66Y-3.02
X4.66Y-3.12
X4.67Y-3.26
X4.67Y-3.36
X4.72Y-3.95
X4.89Y-2.03
X4.988Y-3.944
X4.99Y-2.03
X5.088Y-3.944
X5.188Y-3.944
X5.288Y-3.944
X5.54Y-3.94
X5.64Y-3.94
X5.74Y-3.94
X5.84Y-3.94
X6.0Y-2.19
X6.0Y-2.29
X6.82Y-3.8
X6.92Y-3.8
X7.02Y-3.8
X7.12Y-3.8
X7.22Y-3.8
X7.32Y-3.8
X7.44Y-2.16
X7.44Y-2.26
X7.44Y-2.36
X7.77Y-3.43
X7.77Y-3.53
X7.77Y-3.63
X7.77Y-3.73
T5
X5.1896Y-2.807
X5.1896Y-2.907
X5.1896Y-3.007
X5.1896Y-3.107
X5.1896Y-3.207
X5.1896Y-3.307
X5.1896Y-3.407
X5.1896Y-3.507
X5.6896Y-2.807
X5.6896Y-2.907
X5.6896Y-3.007
X5.6896Y-3.107
X5.6896Y-3.207
X5.6896Y-3.307
X5.6896Y-3.407
X5.6896Y-3.507
T6
X5.31Y-2.03
X6.08Y-3.97
X7.02Y-4.0
X7.44Y-3.99
X7.46Y-3.62
T7
X4.5431Y-2.4654
X4.6612Y-2.6504
X4.7794Y-2.4654
T0
M30
