%TF.GenerationSoftware,KiCad,Pcbnew,(6.0.8)*%
%TF.CreationDate,2022-11-16T21:32:55-08:00*%
%TF.ProjectId,T5Cad,54354361-642e-46b6-9963-61645f706362,2.3.1*%
%TF.SameCoordinates,Original*%
%TF.FileFunction,Legend,Bot*%
%TF.FilePolarity,Positive*%
%FSLAX46Y46*%
G04 Gerber Fmt 4.6, Leading zero omitted, Abs format (unit mm)*
G04 Created by KiCad (PCBNEW (6.0.8)) date 2022-11-16 21:32:55*
%MOMM*%
%LPD*%
G01*
G04 APERTURE LIST*
G04 Aperture macros list*
%AMRoundRect*
0 Rectangle with rounded corners*
0 $1 Rounding radius*
0 $2 $3 $4 $5 $6 $7 $8 $9 X,Y pos of 4 corners*
0 Add a 4 corners polygon primitive as box body*
4,1,4,$2,$3,$4,$5,$6,$7,$8,$9,$2,$3,0*
0 Add four circle primitives for the rounded corners*
1,1,$1+$1,$2,$3*
1,1,$1+$1,$4,$5*
1,1,$1+$1,$6,$7*
1,1,$1+$1,$8,$9*
0 Add four rect primitives between the rounded corners*
20,1,$1+$1,$2,$3,$4,$5,0*
20,1,$1+$1,$4,$5,$6,$7,0*
20,1,$1+$1,$6,$7,$8,$9,0*
20,1,$1+$1,$8,$9,$2,$3,0*%
%AMFreePoly0*
4,1,25,0.506863,1.161696,0.518986,1.151342,1.151342,0.518986,1.179849,0.463038,1.181100,0.447144,1.181100,-0.447144,1.161696,-0.506863,1.151342,-0.518986,0.518986,-1.151342,0.463038,-1.179849,0.447144,-1.181100,-0.447144,-1.181100,-0.506863,-1.161696,-0.518986,-1.151342,-1.151342,-0.518986,-1.179849,-0.463038,-1.181100,-0.447144,-1.181100,0.447144,-1.161696,0.506863,-1.151342,0.518986,
-0.518986,1.151342,-0.463038,1.179849,-0.447144,1.181100,0.447144,1.181100,0.506863,1.161696,0.506863,1.161696,$1*%
%AMFreePoly1*
4,1,25,0.380735,0.857196,0.392858,0.846842,0.846842,0.392858,0.875349,0.336910,0.876600,0.321016,0.876600,-0.321016,0.857196,-0.380735,0.846842,-0.392858,0.392858,-0.846842,0.336910,-0.875349,0.321016,-0.876600,-0.321016,-0.876600,-0.380735,-0.857196,-0.392858,-0.846842,-0.846842,-0.392858,-0.875349,-0.336910,-0.876600,-0.321016,-0.876600,0.321016,-0.857196,0.380735,-0.846842,0.392858,
-0.392858,0.846842,-0.336910,0.875349,-0.321016,0.876600,0.321016,0.876600,0.380735,0.857196,0.380735,0.857196,$1*%
G04 Aperture macros list end*
%ADD10C,0.121920*%
%ADD11FreePoly0,0.000000*%
%ADD12O,3.251200X1.727200*%
%ADD13FreePoly1,270.000000*%
%ADD14O,1.727200X3.251200*%
%ADD15C,3.403600*%
%ADD16RoundRect,0.101600X0.765000X0.765000X-0.765000X0.765000X-0.765000X-0.765000X0.765000X-0.765000X0*%
%ADD17C,1.733200*%
%ADD18O,1.625600X3.048000*%
%ADD19C,4.521200*%
G04 APERTURE END LIST*
D10*
X179164923Y-49408717D02*
X178697563Y-49408717D01*
X178497266Y-50143140D02*
X179164923Y-50143140D01*
X179164923Y-48741060D01*
X178497266Y-48741060D01*
X177095186Y-50009608D02*
X177161952Y-50076374D01*
X177362249Y-50143140D01*
X177495780Y-50143140D01*
X177696077Y-50076374D01*
X177829609Y-49942843D01*
X177896374Y-49809311D01*
X177963140Y-49542248D01*
X177963140Y-49341951D01*
X177896374Y-49074888D01*
X177829609Y-48941357D01*
X177696077Y-48807826D01*
X177495780Y-48741060D01*
X177362249Y-48741060D01*
X177161952Y-48807826D01*
X177095186Y-48874591D01*
X176494294Y-49408717D02*
X176026934Y-49408717D01*
X175826637Y-50143140D02*
X176494294Y-50143140D01*
X176494294Y-48741060D01*
X175826637Y-48741060D01*
X173556603Y-49208420D02*
X173556603Y-50143140D01*
X173890432Y-48674294D02*
X174224260Y-49675780D01*
X173356306Y-49675780D01*
X172087757Y-50143140D02*
X172888946Y-50143140D01*
X172488352Y-50143140D02*
X172488352Y-48741060D01*
X172621883Y-48941357D01*
X172755414Y-49074888D01*
X172888946Y-49141654D01*
X170752443Y-50143140D02*
X171553631Y-50143140D01*
X171153037Y-50143140D02*
X171153037Y-48741060D01*
X171286569Y-48941357D01*
X171420100Y-49074888D01*
X171553631Y-49141654D01*
X169283597Y-48741060D02*
X168482409Y-48741060D01*
X168883003Y-50143140D02*
X168883003Y-48741060D01*
X167480923Y-50076374D02*
X167614454Y-50143140D01*
X167881517Y-50143140D01*
X168015049Y-50076374D01*
X168081814Y-49942843D01*
X168081814Y-49408717D01*
X168015049Y-49275186D01*
X167881517Y-49208420D01*
X167614454Y-49208420D01*
X167480923Y-49275186D01*
X167414157Y-49408717D01*
X167414157Y-49542248D01*
X168081814Y-49675780D01*
X166212374Y-50143140D02*
X166212374Y-49408717D01*
X166279140Y-49275186D01*
X166412671Y-49208420D01*
X166679734Y-49208420D01*
X166813266Y-49275186D01*
X166212374Y-50076374D02*
X166345906Y-50143140D01*
X166679734Y-50143140D01*
X166813266Y-50076374D01*
X166880031Y-49942843D01*
X166880031Y-49809311D01*
X166813266Y-49675780D01*
X166679734Y-49609014D01*
X166345906Y-49609014D01*
X166212374Y-49542248D01*
X165544717Y-50143140D02*
X165544717Y-49208420D01*
X165544717Y-49341951D02*
X165477951Y-49275186D01*
X165344420Y-49208420D01*
X165144123Y-49208420D01*
X165010591Y-49275186D01*
X164943826Y-49408717D01*
X164943826Y-50143140D01*
X164943826Y-49408717D02*
X164877060Y-49275186D01*
X164743529Y-49208420D01*
X164543231Y-49208420D01*
X164409700Y-49275186D01*
X164342934Y-49408717D01*
X164342934Y-50143140D01*
X161939369Y-48741060D02*
X162607026Y-48741060D01*
X162673791Y-49408717D01*
X162607026Y-49341951D01*
X162473494Y-49275186D01*
X162139666Y-49275186D01*
X162006134Y-49341951D01*
X161939369Y-49408717D01*
X161872603Y-49542248D01*
X161872603Y-49876077D01*
X161939369Y-50009608D01*
X162006134Y-50076374D01*
X162139666Y-50143140D01*
X162473494Y-50143140D01*
X162607026Y-50076374D01*
X162673791Y-50009608D01*
X160203460Y-50143140D02*
X160203460Y-48741060D01*
X159402271Y-50143140D02*
X160003163Y-49341951D01*
X159402271Y-48741060D02*
X160203460Y-49542248D01*
X158267254Y-50076374D02*
X158400786Y-50143140D01*
X158667849Y-50143140D01*
X158801380Y-50076374D01*
X158868146Y-49942843D01*
X158868146Y-49408717D01*
X158801380Y-49275186D01*
X158667849Y-49208420D01*
X158400786Y-49208420D01*
X158267254Y-49275186D01*
X158200489Y-49408717D01*
X158200489Y-49542248D01*
X158868146Y-49675780D01*
X157733129Y-49208420D02*
X157399300Y-50143140D01*
X157065471Y-49208420D02*
X157399300Y-50143140D01*
X157532831Y-50476968D01*
X157599597Y-50543734D01*
X157733129Y-50610500D01*
X156331049Y-50143140D02*
X156464580Y-50076374D01*
X156531346Y-49942843D01*
X156531346Y-48741060D01*
X155262797Y-50076374D02*
X155396329Y-50143140D01*
X155663391Y-50143140D01*
X155796923Y-50076374D01*
X155863689Y-49942843D01*
X155863689Y-49408717D01*
X155796923Y-49275186D01*
X155663391Y-49208420D01*
X155396329Y-49208420D01*
X155262797Y-49275186D01*
X155196031Y-49408717D01*
X155196031Y-49542248D01*
X155863689Y-49675780D01*
X154661906Y-50076374D02*
X154528374Y-50143140D01*
X154261311Y-50143140D01*
X154127780Y-50076374D01*
X154061014Y-49942843D01*
X154061014Y-49876077D01*
X154127780Y-49742546D01*
X154261311Y-49675780D01*
X154461609Y-49675780D01*
X154595140Y-49609014D01*
X154661906Y-49475483D01*
X154661906Y-49408717D01*
X154595140Y-49275186D01*
X154461609Y-49208420D01*
X154261311Y-49208420D01*
X154127780Y-49275186D01*
X153526889Y-50076374D02*
X153393357Y-50143140D01*
X153126294Y-50143140D01*
X152992763Y-50076374D01*
X152925997Y-49942843D01*
X152925997Y-49876077D01*
X152992763Y-49742546D01*
X153126294Y-49675780D01*
X153326591Y-49675780D01*
X153460123Y-49609014D01*
X153526889Y-49475483D01*
X153526889Y-49408717D01*
X153460123Y-49275186D01*
X153326591Y-49208420D01*
X153126294Y-49208420D01*
X152992763Y-49275186D01*
X151256854Y-50143140D02*
X151256854Y-48741060D01*
X150923026Y-48741060D01*
X150722729Y-48807826D01*
X150589197Y-48941357D01*
X150522431Y-49074888D01*
X150455666Y-49341951D01*
X150455666Y-49542248D01*
X150522431Y-49809311D01*
X150589197Y-49942843D01*
X150722729Y-50076374D01*
X150923026Y-50143140D01*
X151256854Y-50143140D01*
X149654477Y-50143140D02*
X149788009Y-50076374D01*
X149854774Y-50009608D01*
X149921540Y-49876077D01*
X149921540Y-49475483D01*
X149854774Y-49341951D01*
X149788009Y-49275186D01*
X149654477Y-49208420D01*
X149454180Y-49208420D01*
X149320649Y-49275186D01*
X149253883Y-49341951D01*
X149187117Y-49475483D01*
X149187117Y-49876077D01*
X149253883Y-50009608D01*
X149320649Y-50076374D01*
X149454180Y-50143140D01*
X149654477Y-50143140D01*
X148385929Y-50143140D02*
X148519460Y-50076374D01*
X148586226Y-50009608D01*
X148652991Y-49876077D01*
X148652991Y-49475483D01*
X148586226Y-49341951D01*
X148519460Y-49275186D01*
X148385929Y-49208420D01*
X148185631Y-49208420D01*
X148052100Y-49275186D01*
X147985334Y-49341951D01*
X147918569Y-49475483D01*
X147918569Y-49876077D01*
X147985334Y-50009608D01*
X148052100Y-50076374D01*
X148185631Y-50143140D01*
X148385929Y-50143140D01*
X147317677Y-50143140D02*
X147317677Y-49208420D01*
X147317677Y-49475483D02*
X147250911Y-49341951D01*
X147184146Y-49275186D01*
X147050614Y-49208420D01*
X146917083Y-49208420D01*
X144713814Y-50143140D02*
X145381471Y-50143140D01*
X145381471Y-48741060D01*
X144046157Y-50143140D02*
X144179689Y-50076374D01*
X144246454Y-50009608D01*
X144313220Y-49876077D01*
X144313220Y-49475483D01*
X144246454Y-49341951D01*
X144179689Y-49275186D01*
X144046157Y-49208420D01*
X143845860Y-49208420D01*
X143712329Y-49275186D01*
X143645563Y-49341951D01*
X143578797Y-49475483D01*
X143578797Y-49876077D01*
X143645563Y-50009608D01*
X143712329Y-50076374D01*
X143845860Y-50143140D01*
X144046157Y-50143140D01*
X142377014Y-50076374D02*
X142510546Y-50143140D01*
X142777609Y-50143140D01*
X142911140Y-50076374D01*
X142977906Y-50009608D01*
X143044671Y-49876077D01*
X143044671Y-49475483D01*
X142977906Y-49341951D01*
X142911140Y-49275186D01*
X142777609Y-49208420D01*
X142510546Y-49208420D01*
X142377014Y-49275186D01*
X141776123Y-50143140D02*
X141776123Y-48741060D01*
X141642591Y-49609014D02*
X141241997Y-50143140D01*
X141241997Y-49208420D02*
X141776123Y-49742546D01*
X179164923Y-52400489D02*
X179164923Y-50998409D01*
X178697563Y-51999895D01*
X178230203Y-50998409D01*
X178230203Y-52400489D01*
X177362249Y-52400489D02*
X177495780Y-52333723D01*
X177562546Y-52266957D01*
X177629312Y-52133426D01*
X177629312Y-51732832D01*
X177562546Y-51599300D01*
X177495780Y-51532535D01*
X177362249Y-51465769D01*
X177161952Y-51465769D01*
X177028420Y-51532535D01*
X176961654Y-51599300D01*
X176894889Y-51732832D01*
X176894889Y-52133426D01*
X176961654Y-52266957D01*
X177028420Y-52333723D01*
X177161952Y-52400489D01*
X177362249Y-52400489D01*
X176293997Y-52400489D02*
X176293997Y-50998409D01*
X175693106Y-52400489D02*
X175693106Y-51666066D01*
X175759872Y-51532535D01*
X175893403Y-51465769D01*
X176093700Y-51465769D01*
X176227232Y-51532535D01*
X176293997Y-51599300D01*
X174424557Y-52400489D02*
X174424557Y-51666066D01*
X174491323Y-51532535D01*
X174624854Y-51465769D01*
X174891917Y-51465769D01*
X175025449Y-51532535D01*
X174424557Y-52333723D02*
X174558089Y-52400489D01*
X174891917Y-52400489D01*
X175025449Y-52333723D01*
X175092214Y-52200192D01*
X175092214Y-52066660D01*
X175025449Y-51933129D01*
X174891917Y-51866363D01*
X174558089Y-51866363D01*
X174424557Y-51799597D01*
X173756900Y-52400489D02*
X173756900Y-51465769D01*
X173756900Y-51599300D02*
X173690134Y-51532535D01*
X173556603Y-51465769D01*
X173356306Y-51465769D01*
X173222774Y-51532535D01*
X173156009Y-51666066D01*
X173156009Y-52400489D01*
X173156009Y-51666066D02*
X173089243Y-51532535D01*
X172955712Y-51465769D01*
X172755414Y-51465769D01*
X172621883Y-51532535D01*
X172555117Y-51666066D01*
X172555117Y-52400489D01*
X171353334Y-52333723D02*
X171486866Y-52400489D01*
X171753929Y-52400489D01*
X171887460Y-52333723D01*
X171954226Y-52200192D01*
X171954226Y-51666066D01*
X171887460Y-51532535D01*
X171753929Y-51465769D01*
X171486866Y-51465769D01*
X171353334Y-51532535D01*
X171286569Y-51666066D01*
X171286569Y-51799597D01*
X171954226Y-51933129D01*
X170084786Y-52400489D02*
X170084786Y-50998409D01*
X170084786Y-52333723D02*
X170218317Y-52400489D01*
X170485380Y-52400489D01*
X170618912Y-52333723D01*
X170685677Y-52266957D01*
X170752443Y-52133426D01*
X170752443Y-51732832D01*
X170685677Y-51599300D01*
X170618912Y-51532535D01*
X170485380Y-51465769D01*
X170218317Y-51465769D01*
X170084786Y-51532535D01*
X167614454Y-51065175D02*
X167747986Y-50998409D01*
X167948283Y-50998409D01*
X168148580Y-51065175D01*
X168282112Y-51198706D01*
X168348877Y-51332237D01*
X168415643Y-51599300D01*
X168415643Y-51799597D01*
X168348877Y-52066660D01*
X168282112Y-52200192D01*
X168148580Y-52333723D01*
X167948283Y-52400489D01*
X167814752Y-52400489D01*
X167614454Y-52333723D01*
X167547689Y-52266957D01*
X167547689Y-51799597D01*
X167814752Y-51799597D01*
X166946797Y-52400489D02*
X166946797Y-50998409D01*
X166345906Y-52400489D02*
X166345906Y-51666066D01*
X166412672Y-51532535D01*
X166546203Y-51465769D01*
X166746500Y-51465769D01*
X166880032Y-51532535D01*
X166946797Y-51599300D01*
X165477952Y-52400489D02*
X165611483Y-52333723D01*
X165678249Y-52266957D01*
X165745014Y-52133426D01*
X165745014Y-51732832D01*
X165678249Y-51599300D01*
X165611483Y-51532535D01*
X165477952Y-51465769D01*
X165277654Y-51465769D01*
X165144123Y-51532535D01*
X165077357Y-51599300D01*
X165010592Y-51732832D01*
X165010592Y-52133426D01*
X165077357Y-52266957D01*
X165144123Y-52333723D01*
X165277654Y-52400489D01*
X165477952Y-52400489D01*
X164409700Y-51465769D02*
X164409700Y-52400489D01*
X164409700Y-51599300D02*
X164342934Y-51532535D01*
X164209403Y-51465769D01*
X164009106Y-51465769D01*
X163875574Y-51532535D01*
X163808809Y-51666066D01*
X163808809Y-52400489D01*
X163141152Y-52400489D02*
X163141152Y-51465769D01*
X163141152Y-50998409D02*
X163207917Y-51065175D01*
X163141152Y-51131940D01*
X163074386Y-51065175D01*
X163141152Y-50998409D01*
X163141152Y-51131940D01*
X162473494Y-52400489D02*
X162473494Y-51465769D01*
X162473494Y-51599300D02*
X162406729Y-51532535D01*
X162273197Y-51465769D01*
X162072900Y-51465769D01*
X161939369Y-51532535D01*
X161872603Y-51666066D01*
X161872603Y-52400489D01*
X161872603Y-51666066D02*
X161805837Y-51532535D01*
X161672306Y-51465769D01*
X161472009Y-51465769D01*
X161338477Y-51532535D01*
X161271712Y-51666066D01*
X161271712Y-52400489D01*
X179164923Y-54657838D02*
X179164923Y-53255758D01*
X178697563Y-54257244D01*
X178230203Y-53255758D01*
X178230203Y-54657838D01*
X177362249Y-54657838D02*
X177495780Y-54591072D01*
X177562546Y-54524306D01*
X177629312Y-54390775D01*
X177629312Y-53990181D01*
X177562546Y-53856649D01*
X177495780Y-53789884D01*
X177362249Y-53723118D01*
X177161952Y-53723118D01*
X177028420Y-53789884D01*
X176961654Y-53856649D01*
X176894889Y-53990181D01*
X176894889Y-54390775D01*
X176961654Y-54524306D01*
X177028420Y-54591072D01*
X177161952Y-54657838D01*
X177362249Y-54657838D01*
X176293997Y-54657838D02*
X176293997Y-53255758D01*
X175693106Y-54657838D02*
X175693106Y-53923415D01*
X175759872Y-53789884D01*
X175893403Y-53723118D01*
X176093700Y-53723118D01*
X176227232Y-53789884D01*
X176293997Y-53856649D01*
X174424557Y-54657838D02*
X174424557Y-53923415D01*
X174491323Y-53789884D01*
X174624854Y-53723118D01*
X174891917Y-53723118D01*
X175025449Y-53789884D01*
X174424557Y-54591072D02*
X174558089Y-54657838D01*
X174891917Y-54657838D01*
X175025449Y-54591072D01*
X175092214Y-54457541D01*
X175092214Y-54324009D01*
X175025449Y-54190478D01*
X174891917Y-54123712D01*
X174558089Y-54123712D01*
X174424557Y-54056946D01*
X173756900Y-54657838D02*
X173756900Y-53723118D01*
X173756900Y-53856649D02*
X173690134Y-53789884D01*
X173556603Y-53723118D01*
X173356306Y-53723118D01*
X173222774Y-53789884D01*
X173156009Y-53923415D01*
X173156009Y-54657838D01*
X173156009Y-53923415D02*
X173089243Y-53789884D01*
X172955712Y-53723118D01*
X172755414Y-53723118D01*
X172621883Y-53789884D01*
X172555117Y-53923415D01*
X172555117Y-54657838D01*
X171353334Y-54591072D02*
X171486866Y-54657838D01*
X171753929Y-54657838D01*
X171887460Y-54591072D01*
X171954226Y-54457541D01*
X171954226Y-53923415D01*
X171887460Y-53789884D01*
X171753929Y-53723118D01*
X171486866Y-53723118D01*
X171353334Y-53789884D01*
X171286569Y-53923415D01*
X171286569Y-54056946D01*
X171954226Y-54190478D01*
X170084786Y-54657838D02*
X170084786Y-53255758D01*
X170084786Y-54591072D02*
X170218317Y-54657838D01*
X170485380Y-54657838D01*
X170618912Y-54591072D01*
X170685677Y-54524306D01*
X170752443Y-54390775D01*
X170752443Y-53990181D01*
X170685677Y-53856649D01*
X170618912Y-53789884D01*
X170485380Y-53723118D01*
X170218317Y-53723118D01*
X170084786Y-53789884D01*
X168415643Y-54257244D02*
X167747986Y-54257244D01*
X168549174Y-54657838D02*
X168081814Y-53255758D01*
X167614454Y-54657838D01*
X167213860Y-54591072D02*
X167080329Y-54657838D01*
X166813266Y-54657838D01*
X166679734Y-54591072D01*
X166612969Y-54457541D01*
X166612969Y-54390775D01*
X166679734Y-54257244D01*
X166813266Y-54190478D01*
X167013563Y-54190478D01*
X167147094Y-54123712D01*
X167213860Y-53990181D01*
X167213860Y-53923415D01*
X167147094Y-53789884D01*
X167013563Y-53723118D01*
X166813266Y-53723118D01*
X166679734Y-53789884D01*
X166012077Y-54657838D02*
X166012077Y-53255758D01*
X165411186Y-54657838D02*
X165411186Y-53923415D01*
X165477952Y-53789884D01*
X165611483Y-53723118D01*
X165811780Y-53723118D01*
X165945312Y-53789884D01*
X166012077Y-53856649D01*
X164743529Y-54657838D02*
X164743529Y-53255758D01*
X164609997Y-54123712D02*
X164209403Y-54657838D01*
X164209403Y-53723118D02*
X164743529Y-54257244D01*
X163007620Y-54657838D02*
X163007620Y-53923415D01*
X163074386Y-53789884D01*
X163207917Y-53723118D01*
X163474980Y-53723118D01*
X163608512Y-53789884D01*
X163007620Y-54591072D02*
X163141152Y-54657838D01*
X163474980Y-54657838D01*
X163608512Y-54591072D01*
X163675277Y-54457541D01*
X163675277Y-54324009D01*
X163608512Y-54190478D01*
X163474980Y-54123712D01*
X163141152Y-54123712D01*
X163007620Y-54056946D01*
X162339963Y-53723118D02*
X162339963Y-54657838D01*
X162339963Y-53856649D02*
X162273197Y-53789884D01*
X162139666Y-53723118D01*
X161939369Y-53723118D01*
X161805837Y-53789884D01*
X161739072Y-53923415D01*
X161739072Y-54657838D01*
X160470523Y-54657838D02*
X160470523Y-53923415D01*
X160537289Y-53789884D01*
X160670820Y-53723118D01*
X160937883Y-53723118D01*
X161071414Y-53789884D01*
X160470523Y-54591072D02*
X160604054Y-54657838D01*
X160937883Y-54657838D01*
X161071414Y-54591072D01*
X161138180Y-54457541D01*
X161138180Y-54324009D01*
X161071414Y-54190478D01*
X160937883Y-54123712D01*
X160604054Y-54123712D01*
X160470523Y-54056946D01*
X159802866Y-53723118D02*
X159802866Y-54657838D01*
X159802866Y-53856649D02*
X159736100Y-53789884D01*
X159602569Y-53723118D01*
X159402272Y-53723118D01*
X159268740Y-53789884D01*
X159201974Y-53923415D01*
X159201974Y-54657838D01*
X158534317Y-54657838D02*
X158534317Y-53723118D01*
X158534317Y-53255758D02*
X158601083Y-53322524D01*
X158534317Y-53389289D01*
X158467552Y-53322524D01*
X158534317Y-53255758D01*
X158534317Y-53389289D01*
X178764329Y-55513107D02*
X178764329Y-56514593D01*
X178831094Y-56714890D01*
X178964626Y-56848421D01*
X179164923Y-56915187D01*
X179298454Y-56915187D01*
X177896374Y-56915187D02*
X178029906Y-56848421D01*
X178096672Y-56781655D01*
X178163437Y-56648124D01*
X178163437Y-56247530D01*
X178096672Y-56113998D01*
X178029906Y-56047233D01*
X177896374Y-55980467D01*
X177696077Y-55980467D01*
X177562546Y-56047233D01*
X177495780Y-56113998D01*
X177429014Y-56247530D01*
X177429014Y-56648124D01*
X177495780Y-56781655D01*
X177562546Y-56848421D01*
X177696077Y-56915187D01*
X177896374Y-56915187D01*
X176894889Y-56848421D02*
X176761357Y-56915187D01*
X176494294Y-56915187D01*
X176360763Y-56848421D01*
X176293997Y-56714890D01*
X176293997Y-56648124D01*
X176360763Y-56514593D01*
X176494294Y-56447827D01*
X176694592Y-56447827D01*
X176828123Y-56381061D01*
X176894889Y-56247530D01*
X176894889Y-56180764D01*
X176828123Y-56047233D01*
X176694592Y-55980467D01*
X176494294Y-55980467D01*
X176360763Y-56047233D01*
X175693106Y-56915187D02*
X175693106Y-55513107D01*
X175092214Y-56915187D02*
X175092214Y-56180764D01*
X175158980Y-56047233D01*
X175292512Y-55980467D01*
X175492809Y-55980467D01*
X175626340Y-56047233D01*
X175693106Y-56113998D01*
X173823666Y-55980467D02*
X173823666Y-56915187D01*
X174424557Y-55980467D02*
X174424557Y-56714890D01*
X174357792Y-56848421D01*
X174224260Y-56915187D01*
X174023963Y-56915187D01*
X173890432Y-56848421D01*
X173823666Y-56781655D01*
X172555117Y-56915187D02*
X172555117Y-56180764D01*
X172621883Y-56047233D01*
X172755414Y-55980467D01*
X173022477Y-55980467D01*
X173156009Y-56047233D01*
X172555117Y-56848421D02*
X172688649Y-56915187D01*
X173022477Y-56915187D01*
X173156009Y-56848421D01*
X173222774Y-56714890D01*
X173222774Y-56581358D01*
X173156009Y-56447827D01*
X173022477Y-56381061D01*
X172688649Y-56381061D01*
X172555117Y-56314295D01*
X170819209Y-56915187D02*
X170819209Y-55513107D01*
X170819209Y-56180764D02*
X170018020Y-56180764D01*
X170018020Y-56915187D02*
X170018020Y-55513107D01*
X169150066Y-56915187D02*
X169283597Y-56848421D01*
X169350363Y-56781655D01*
X169417129Y-56648124D01*
X169417129Y-56247530D01*
X169350363Y-56113998D01*
X169283597Y-56047233D01*
X169150066Y-55980467D01*
X168949769Y-55980467D01*
X168816237Y-56047233D01*
X168749472Y-56113998D01*
X168682706Y-56247530D01*
X168682706Y-56648124D01*
X168749472Y-56781655D01*
X168816237Y-56848421D01*
X168949769Y-56915187D01*
X169150066Y-56915187D01*
X168081814Y-56915187D02*
X168081814Y-55513107D01*
X168081814Y-56047233D02*
X167948283Y-55980467D01*
X167681220Y-55980467D01*
X167547689Y-56047233D01*
X167480923Y-56113998D01*
X167414157Y-56247530D01*
X167414157Y-56648124D01*
X167480923Y-56781655D01*
X167547689Y-56848421D01*
X167681220Y-56915187D01*
X167948283Y-56915187D01*
X168081814Y-56848421D01*
X166813266Y-56915187D02*
X166813266Y-55513107D01*
X166813266Y-56047233D02*
X166679734Y-55980467D01*
X166412672Y-55980467D01*
X166279140Y-56047233D01*
X166212374Y-56113998D01*
X166145609Y-56247530D01*
X166145609Y-56648124D01*
X166212374Y-56781655D01*
X166279140Y-56848421D01*
X166412672Y-56915187D01*
X166679734Y-56915187D01*
X166813266Y-56848421D01*
X165678249Y-55980467D02*
X165344420Y-56915187D01*
X165010592Y-55980467D02*
X165344420Y-56915187D01*
X165477952Y-57249015D01*
X165544717Y-57315781D01*
X165678249Y-57382547D01*
X179164923Y-59172536D02*
X179164923Y-57770456D01*
X178497266Y-59172536D02*
X178497266Y-57770456D01*
X178497266Y-58304582D02*
X178363734Y-58237816D01*
X178096672Y-58237816D01*
X177963140Y-58304582D01*
X177896374Y-58371347D01*
X177829609Y-58504879D01*
X177829609Y-58905473D01*
X177896374Y-59039004D01*
X177963140Y-59105770D01*
X178096672Y-59172536D01*
X178363734Y-59172536D01*
X178497266Y-59105770D01*
X177228717Y-59172536D02*
X177228717Y-58237816D01*
X177228717Y-58504879D02*
X177161952Y-58371347D01*
X177095186Y-58304582D01*
X176961654Y-58237816D01*
X176828123Y-58237816D01*
X175759872Y-59172536D02*
X175759872Y-58438113D01*
X175826637Y-58304582D01*
X175960169Y-58237816D01*
X176227232Y-58237816D01*
X176360763Y-58304582D01*
X175759872Y-59105770D02*
X175893403Y-59172536D01*
X176227232Y-59172536D01*
X176360763Y-59105770D01*
X176427529Y-58972239D01*
X176427529Y-58838707D01*
X176360763Y-58705176D01*
X176227232Y-58638410D01*
X175893403Y-58638410D01*
X175759872Y-58571644D01*
X175092214Y-59172536D02*
X175092214Y-57770456D01*
X174491323Y-59172536D02*
X174491323Y-58438113D01*
X174558089Y-58304582D01*
X174691620Y-58237816D01*
X174891917Y-58237816D01*
X175025449Y-58304582D01*
X175092214Y-58371347D01*
X173823666Y-59172536D02*
X173823666Y-58237816D01*
X173823666Y-57770456D02*
X173890432Y-57837222D01*
X173823666Y-57903987D01*
X173756900Y-57837222D01*
X173823666Y-57770456D01*
X173823666Y-57903987D01*
X173156009Y-59172536D02*
X173156009Y-58237816D01*
X173156009Y-58371347D02*
X173089243Y-58304582D01*
X172955712Y-58237816D01*
X172755414Y-58237816D01*
X172621883Y-58304582D01*
X172555117Y-58438113D01*
X172555117Y-59172536D01*
X172555117Y-58438113D02*
X172488352Y-58304582D01*
X172354820Y-58237816D01*
X172154523Y-58237816D01*
X172020992Y-58304582D01*
X171954226Y-58438113D01*
X171954226Y-59172536D01*
X169750957Y-58438113D02*
X169550660Y-58504879D01*
X169483894Y-58571644D01*
X169417129Y-58705176D01*
X169417129Y-58905473D01*
X169483894Y-59039004D01*
X169550660Y-59105770D01*
X169684192Y-59172536D01*
X170218317Y-59172536D01*
X170218317Y-57770456D01*
X169750957Y-57770456D01*
X169617426Y-57837222D01*
X169550660Y-57903987D01*
X169483894Y-58037519D01*
X169483894Y-58171050D01*
X169550660Y-58304582D01*
X169617426Y-58371347D01*
X169750957Y-58438113D01*
X170218317Y-58438113D01*
X168816237Y-59172536D02*
X168816237Y-58237816D01*
X168816237Y-57770456D02*
X168883003Y-57837222D01*
X168816237Y-57903987D01*
X168749472Y-57837222D01*
X168816237Y-57770456D01*
X168816237Y-57903987D01*
X168148580Y-58237816D02*
X168148580Y-59172536D01*
X168148580Y-58371347D02*
X168081814Y-58304582D01*
X167948283Y-58237816D01*
X167747986Y-58237816D01*
X167614454Y-58304582D01*
X167547689Y-58438113D01*
X167547689Y-59172536D01*
X166880032Y-59172536D02*
X166880032Y-58237816D01*
X166880032Y-58371347D02*
X166813266Y-58304582D01*
X166679734Y-58237816D01*
X166479437Y-58237816D01*
X166345906Y-58304582D01*
X166279140Y-58438113D01*
X166279140Y-59172536D01*
X166279140Y-58438113D02*
X166212374Y-58304582D01*
X166078843Y-58237816D01*
X165878546Y-58237816D01*
X165745014Y-58304582D01*
X165678249Y-58438113D01*
X165678249Y-59172536D01*
X164409700Y-59172536D02*
X164409700Y-58438113D01*
X164476466Y-58304582D01*
X164609997Y-58237816D01*
X164877060Y-58237816D01*
X165010592Y-58304582D01*
X164409700Y-59105770D02*
X164543232Y-59172536D01*
X164877060Y-59172536D01*
X165010592Y-59105770D01*
X165077357Y-58972239D01*
X165077357Y-58838707D01*
X165010592Y-58705176D01*
X164877060Y-58638410D01*
X164543232Y-58638410D01*
X164409700Y-58571644D01*
X163742043Y-59172536D02*
X163742043Y-57770456D01*
X163141152Y-59172536D02*
X163141152Y-58438113D01*
X163207917Y-58304582D01*
X163341449Y-58237816D01*
X163541746Y-58237816D01*
X163675277Y-58304582D01*
X163742043Y-58371347D01*
X162673792Y-58237816D02*
X162139666Y-58237816D01*
X162473494Y-59172536D02*
X162473494Y-57970753D01*
X162406729Y-57837222D01*
X162273197Y-57770456D01*
X162139666Y-57770456D01*
X161472009Y-59172536D02*
X161605540Y-59105770D01*
X161672306Y-59039004D01*
X161739072Y-58905473D01*
X161739072Y-58504879D01*
X161672306Y-58371347D01*
X161605540Y-58304582D01*
X161472009Y-58237816D01*
X161271712Y-58237816D01*
X161138180Y-58304582D01*
X161071414Y-58371347D01*
X161004649Y-58504879D01*
X161004649Y-58905473D01*
X161071414Y-59039004D01*
X161138180Y-59105770D01*
X161271712Y-59172536D01*
X161472009Y-59172536D01*
X160203460Y-59172536D02*
X160336992Y-59105770D01*
X160403757Y-59039004D01*
X160470523Y-58905473D01*
X160470523Y-58504879D01*
X160403757Y-58371347D01*
X160336992Y-58304582D01*
X160203460Y-58237816D01*
X160003163Y-58237816D01*
X159869632Y-58304582D01*
X159802866Y-58371347D01*
X159736100Y-58504879D01*
X159736100Y-58905473D01*
X159802866Y-59039004D01*
X159869632Y-59105770D01*
X160003163Y-59172536D01*
X160203460Y-59172536D01*
X158534317Y-59172536D02*
X158534317Y-57770456D01*
X158534317Y-59105770D02*
X158667849Y-59172536D01*
X158934912Y-59172536D01*
X159068443Y-59105770D01*
X159135209Y-59039004D01*
X159201974Y-58905473D01*
X159201974Y-58504879D01*
X159135209Y-58371347D01*
X159068443Y-58304582D01*
X158934912Y-58237816D01*
X158667849Y-58237816D01*
X158534317Y-58304582D01*
X179365220Y-60027805D02*
X178897860Y-61429885D01*
X178430500Y-60027805D01*
X177429014Y-61363119D02*
X177562546Y-61429885D01*
X177829609Y-61429885D01*
X177963140Y-61363119D01*
X178029906Y-61229588D01*
X178029906Y-60695462D01*
X177963140Y-60561931D01*
X177829609Y-60495165D01*
X177562546Y-60495165D01*
X177429014Y-60561931D01*
X177362249Y-60695462D01*
X177362249Y-60828993D01*
X178029906Y-60962525D01*
X176761357Y-61429885D02*
X176761357Y-60495165D01*
X176761357Y-60762228D02*
X176694592Y-60628696D01*
X176627826Y-60561931D01*
X176494294Y-60495165D01*
X176360763Y-60495165D01*
X175960169Y-61363119D02*
X175826637Y-61429885D01*
X175559574Y-61429885D01*
X175426043Y-61363119D01*
X175359277Y-61229588D01*
X175359277Y-61162822D01*
X175426043Y-61029291D01*
X175559574Y-60962525D01*
X175759872Y-60962525D01*
X175893403Y-60895759D01*
X175960169Y-60762228D01*
X175960169Y-60695462D01*
X175893403Y-60561931D01*
X175759872Y-60495165D01*
X175559574Y-60495165D01*
X175426043Y-60561931D01*
X174758386Y-61429885D02*
X174758386Y-60495165D01*
X174758386Y-60027805D02*
X174825152Y-60094571D01*
X174758386Y-60161336D01*
X174691620Y-60094571D01*
X174758386Y-60027805D01*
X174758386Y-60161336D01*
X173890432Y-61429885D02*
X174023963Y-61363119D01*
X174090729Y-61296353D01*
X174157494Y-61162822D01*
X174157494Y-60762228D01*
X174090729Y-60628696D01*
X174023963Y-60561931D01*
X173890432Y-60495165D01*
X173690134Y-60495165D01*
X173556603Y-60561931D01*
X173489837Y-60628696D01*
X173423072Y-60762228D01*
X173423072Y-61162822D01*
X173489837Y-61296353D01*
X173556603Y-61363119D01*
X173690134Y-61429885D01*
X173890432Y-61429885D01*
X172822180Y-60495165D02*
X172822180Y-61429885D01*
X172822180Y-60628696D02*
X172755414Y-60561931D01*
X172621883Y-60495165D01*
X172421586Y-60495165D01*
X172288054Y-60561931D01*
X172221289Y-60695462D01*
X172221289Y-61429885D01*
X170552146Y-60161336D02*
X170485380Y-60094571D01*
X170351849Y-60027805D01*
X170018020Y-60027805D01*
X169884489Y-60094571D01*
X169817723Y-60161336D01*
X169750957Y-60294868D01*
X169750957Y-60428399D01*
X169817723Y-60628696D01*
X170618912Y-61429885D01*
X169750957Y-61429885D01*
X169150066Y-61296353D02*
X169083300Y-61363119D01*
X169150066Y-61429885D01*
X169216832Y-61363119D01*
X169150066Y-61296353D01*
X169150066Y-61429885D01*
X168615940Y-60027805D02*
X167747986Y-60027805D01*
X168215346Y-60561931D01*
X168015049Y-60561931D01*
X167881517Y-60628696D01*
X167814752Y-60695462D01*
X167747986Y-60828993D01*
X167747986Y-61162822D01*
X167814752Y-61296353D01*
X167881517Y-61363119D01*
X168015049Y-61429885D01*
X168415643Y-61429885D01*
X168549174Y-61363119D01*
X168615940Y-61296353D01*
X167147094Y-61296353D02*
X167080329Y-61363119D01*
X167147094Y-61429885D01*
X167213860Y-61363119D01*
X167147094Y-61296353D01*
X167147094Y-61429885D01*
X165745014Y-61429885D02*
X166546203Y-61429885D01*
X166145609Y-61429885D02*
X166145609Y-60027805D01*
X166279140Y-60228102D01*
X166412672Y-60361633D01*
X166546203Y-60428399D01*
X178430500Y-63687234D02*
X179231689Y-63687234D01*
X178831094Y-63687234D02*
X178831094Y-62285154D01*
X178964626Y-62485451D01*
X179098157Y-62618982D01*
X179231689Y-62685748D01*
X177095186Y-63687234D02*
X177896374Y-63687234D01*
X177495780Y-63687234D02*
X177495780Y-62285154D01*
X177629312Y-62485451D01*
X177762843Y-62618982D01*
X177896374Y-62685748D01*
X175492809Y-62218388D02*
X176694592Y-64021062D01*
X174291026Y-63687234D02*
X175092214Y-63687234D01*
X174691620Y-63687234D02*
X174691620Y-62285154D01*
X174825152Y-62485451D01*
X174958683Y-62618982D01*
X175092214Y-62685748D01*
X173089243Y-62285154D02*
X173356306Y-62285154D01*
X173489837Y-62351920D01*
X173556603Y-62418685D01*
X173690134Y-62618982D01*
X173756900Y-62886045D01*
X173756900Y-63420171D01*
X173690134Y-63553702D01*
X173623369Y-63620468D01*
X173489837Y-63687234D01*
X173222774Y-63687234D01*
X173089243Y-63620468D01*
X173022477Y-63553702D01*
X172955712Y-63420171D01*
X172955712Y-63086342D01*
X173022477Y-62952811D01*
X173089243Y-62886045D01*
X173222774Y-62819280D01*
X173489837Y-62819280D01*
X173623369Y-62886045D01*
X173690134Y-62952811D01*
X173756900Y-63086342D01*
X171353334Y-62218388D02*
X172555117Y-64021062D01*
X170952740Y-62418685D02*
X170885974Y-62351920D01*
X170752443Y-62285154D01*
X170418614Y-62285154D01*
X170285083Y-62351920D01*
X170218317Y-62418685D01*
X170151552Y-62552217D01*
X170151552Y-62685748D01*
X170218317Y-62886045D01*
X171019506Y-63687234D01*
X170151552Y-63687234D01*
X169283597Y-62285154D02*
X169150066Y-62285154D01*
X169016534Y-62351920D01*
X168949769Y-62418685D01*
X168883003Y-62552217D01*
X168816237Y-62819280D01*
X168816237Y-63153108D01*
X168883003Y-63420171D01*
X168949769Y-63553702D01*
X169016534Y-63620468D01*
X169150066Y-63687234D01*
X169283597Y-63687234D01*
X169417129Y-63620468D01*
X169483894Y-63553702D01*
X169550660Y-63420171D01*
X169617426Y-63153108D01*
X169617426Y-62819280D01*
X169550660Y-62552217D01*
X169483894Y-62418685D01*
X169417129Y-62351920D01*
X169283597Y-62285154D01*
X168282112Y-62418685D02*
X168215346Y-62351920D01*
X168081814Y-62285154D01*
X167747986Y-62285154D01*
X167614454Y-62351920D01*
X167547689Y-62418685D01*
X167480923Y-62552217D01*
X167480923Y-62685748D01*
X167547689Y-62886045D01*
X168348877Y-63687234D01*
X167480923Y-63687234D01*
X166946797Y-62418685D02*
X166880032Y-62351920D01*
X166746500Y-62285154D01*
X166412672Y-62285154D01*
X166279140Y-62351920D01*
X166212374Y-62418685D01*
X166145609Y-62552217D01*
X166145609Y-62685748D01*
X166212374Y-62886045D01*
X167013563Y-63687234D01*
X166145609Y-63687234D01*
%LPC*%
D11*
%TO.C,TP3*%
X178308000Y-101600000D03*
%TD*%
D12*
%TO.C,JP2*%
X188976000Y-59944000D03*
X188976000Y-57404000D03*
X188976000Y-54864000D03*
%TD*%
D13*
%TO.C,J1*%
X159512000Y-90932000D03*
X162052000Y-90932000D03*
X159512000Y-93472000D03*
X162052000Y-93472000D03*
X159512000Y-96012000D03*
X162052000Y-96012000D03*
%TD*%
D14*
%TO.C,JP4*%
X140716000Y-100076000D03*
X143256000Y-100076000D03*
X145796000Y-100076000D03*
X148336000Y-100076000D03*
%TD*%
D11*
%TO.C,TP4*%
X134874000Y-51562000D03*
%TD*%
%TO.C,TP5*%
X154432000Y-100838000D03*
%TD*%
D15*
%TO.C,H3*%
X110500000Y-101500000D03*
%TD*%
D16*
%TO.C,U8*%
X144516600Y-89077800D03*
D17*
X144516600Y-86537800D03*
X144516600Y-83997800D03*
X144516600Y-81457800D03*
X144516600Y-78917800D03*
X144516600Y-76377800D03*
X144516600Y-73837800D03*
X144516600Y-71297800D03*
X131816600Y-71297800D03*
X131816600Y-73837800D03*
X131816600Y-76377800D03*
X131816600Y-78917800D03*
X131816600Y-81457800D03*
X131816600Y-83997800D03*
X131816600Y-86537800D03*
X131816600Y-89077800D03*
%TD*%
D12*
%TO.C,JP5*%
X152400000Y-58166000D03*
X152400000Y-55626000D03*
%TD*%
D15*
%TO.C,H1*%
X199750000Y-51250000D03*
%TD*%
D12*
%TO.C,JP1*%
X197358000Y-87122000D03*
X197358000Y-89662000D03*
X197358000Y-92202000D03*
X197358000Y-94742000D03*
%TD*%
%TO.C,JP8*%
X118618000Y-85344000D03*
X118618000Y-82804000D03*
%TD*%
D14*
%TO.C,J3*%
X173228000Y-96520000D03*
X175768000Y-96520000D03*
X178308000Y-96520000D03*
X180848000Y-96520000D03*
X183388000Y-96520000D03*
X185928000Y-96520000D03*
%TD*%
%TO.C,JP6*%
X126746000Y-51562000D03*
X124206000Y-51562000D03*
%TD*%
D15*
%TO.C,H2*%
X110500000Y-51250000D03*
%TD*%
D11*
%TO.C,TP1*%
X188976000Y-101346000D03*
%TD*%
D15*
%TO.C,H4*%
X200406000Y-102500000D03*
%TD*%
D18*
%TO.C,U4*%
X187706000Y-77470000D03*
X185166000Y-77470000D03*
X182626000Y-77470000D03*
X180086000Y-77470000D03*
X177546000Y-77470000D03*
X175006000Y-77470000D03*
X172466000Y-77470000D03*
X169926000Y-77470000D03*
X167386000Y-77470000D03*
X164846000Y-77470000D03*
X162306000Y-77470000D03*
X159766000Y-77470000D03*
X157226000Y-77470000D03*
X154686000Y-77470000D03*
X154686000Y-85090000D03*
X157226000Y-85090000D03*
X159766000Y-85090000D03*
X162306000Y-85090000D03*
X164846000Y-85090000D03*
X167386000Y-85090000D03*
X169926000Y-85090000D03*
X172466000Y-85090000D03*
X175006000Y-85090000D03*
X177546000Y-85090000D03*
X180086000Y-85090000D03*
X182626000Y-85090000D03*
X185166000Y-85090000D03*
X187706000Y-85090000D03*
%TD*%
D11*
%TO.C,TP2*%
X189484000Y-91948000D03*
%TD*%
D12*
%TO.C,JP9*%
X118364000Y-76708000D03*
X118364000Y-79248000D03*
%TD*%
D14*
%TO.C,JP3*%
X134315200Y-100177600D03*
X131775200Y-100177600D03*
X129235200Y-100177600D03*
X126695200Y-100177600D03*
%TD*%
%TO.C,JP7*%
X117348000Y-100330000D03*
X119888000Y-100330000D03*
%TD*%
D19*
%TO.C,J2*%
X115395500Y-62621300D03*
X118395500Y-67321300D03*
X121395500Y-62621300D03*
%TD*%
M02*
