%TF.GenerationSoftware,KiCad,Pcbnew,(6.0.8)*%
%TF.CreationDate,2022-11-16T21:32:55-08:00*%
%TF.ProjectId,T5Cad,54354361-642e-46b6-9963-61645f706362,2.3.1*%
%TF.SameCoordinates,Original*%
%TF.FileFunction,Legend,Top*%
%TF.FilePolarity,Positive*%
%FSLAX46Y46*%
G04 Gerber Fmt 4.6, Leading zero omitted, Abs format (unit mm)*
G04 Created by KiCad (PCBNEW (6.0.8)) date 2022-11-16 21:32:55*
%MOMM*%
%LPD*%
G01*
G04 APERTURE LIST*
G04 Aperture macros list*
%AMRoundRect*
0 Rectangle with rounded corners*
0 $1 Rounding radius*
0 $2 $3 $4 $5 $6 $7 $8 $9 X,Y pos of 4 corners*
0 Add a 4 corners polygon primitive as box body*
4,1,4,$2,$3,$4,$5,$6,$7,$8,$9,$2,$3,0*
0 Add four circle primitives for the rounded corners*
1,1,$1+$1,$2,$3*
1,1,$1+$1,$4,$5*
1,1,$1+$1,$6,$7*
1,1,$1+$1,$8,$9*
0 Add four rect primitives between the rounded corners*
20,1,$1+$1,$2,$3,$4,$5,0*
20,1,$1+$1,$4,$5,$6,$7,0*
20,1,$1+$1,$6,$7,$8,$9,0*
20,1,$1+$1,$8,$9,$2,$3,0*%
%AMFreePoly0*
4,1,25,0.506863,1.161696,0.518986,1.151342,1.151342,0.518986,1.179849,0.463038,1.181100,0.447144,1.181100,-0.447144,1.161696,-0.506863,1.151342,-0.518986,0.518986,-1.151342,0.463038,-1.179849,0.447144,-1.181100,-0.447144,-1.181100,-0.506863,-1.161696,-0.518986,-1.151342,-1.151342,-0.518986,-1.179849,-0.463038,-1.181100,-0.447144,-1.181100,0.447144,-1.161696,0.506863,-1.151342,0.518986,
-0.518986,1.151342,-0.463038,1.179849,-0.447144,1.181100,0.447144,1.181100,0.506863,1.161696,0.506863,1.161696,$1*%
%AMFreePoly1*
4,1,25,0.380735,0.857196,0.392858,0.846842,0.846842,0.392858,0.875349,0.336910,0.876600,0.321016,0.876600,-0.321016,0.857196,-0.380735,0.846842,-0.392858,0.392858,-0.846842,0.336910,-0.875349,0.321016,-0.876600,-0.321016,-0.876600,-0.380735,-0.857196,-0.392858,-0.846842,-0.846842,-0.392858,-0.875349,-0.336910,-0.876600,-0.321016,-0.876600,0.321016,-0.857196,0.380735,-0.846842,0.392858,
-0.392858,0.846842,-0.336910,0.875349,-0.321016,0.876600,0.321016,0.876600,0.380735,0.857196,0.380735,0.857196,$1*%
G04 Aperture macros list end*
%ADD10C,0.121920*%
%ADD11C,0.127000*%
%ADD12C,0.101600*%
%ADD13C,0.081280*%
%ADD14C,0.032512*%
%ADD15C,0.177800*%
%ADD16C,0.152400*%
%ADD17C,0.203200*%
%ADD18C,0.200000*%
%ADD19C,0.050800*%
%ADD20FreePoly0,0.000000*%
%ADD21O,3.251200X1.727200*%
%ADD22RoundRect,0.101600X-0.650000X-0.750000X0.650000X-0.750000X0.650000X0.750000X-0.650000X0.750000X0*%
%ADD23FreePoly1,270.000000*%
%ADD24O,1.727200X3.251200*%
%ADD25RoundRect,0.101600X-0.650000X-0.800000X0.650000X-0.800000X0.650000X0.800000X-0.650000X0.800000X0*%
%ADD26RoundRect,0.101600X0.650000X0.800000X-0.650000X0.800000X-0.650000X-0.800000X0.650000X-0.800000X0*%
%ADD27C,3.403600*%
%ADD28RoundRect,0.101600X0.650000X0.750000X-0.650000X0.750000X-0.650000X-0.750000X0.650000X-0.750000X0*%
%ADD29RoundRect,0.101600X0.600000X-0.600000X0.600000X0.600000X-0.600000X0.600000X-0.600000X-0.600000X0*%
%ADD30RoundRect,0.101600X0.762000X-0.381000X0.762000X0.381000X-0.762000X0.381000X-0.762000X-0.381000X0*%
%ADD31RoundRect,0.101600X0.765000X0.765000X-0.765000X0.765000X-0.765000X-0.765000X0.765000X-0.765000X0*%
%ADD32C,1.733200*%
%ADD33RoundRect,0.101600X2.667000X0.965200X-2.667000X0.965200X-2.667000X-0.965200X2.667000X-0.965200X0*%
%ADD34RoundRect,0.101600X-0.800000X0.650000X-0.800000X-0.650000X0.800000X-0.650000X0.800000X0.650000X0*%
%ADD35RoundRect,0.101600X0.800000X-0.650000X0.800000X0.650000X-0.800000X0.650000X-0.800000X-0.650000X0*%
%ADD36O,1.625600X3.048000*%
%ADD37RoundRect,0.101600X1.200000X1.200000X-1.200000X1.200000X-1.200000X-1.200000X1.200000X-1.200000X0*%
%ADD38C,4.521200*%
G04 APERTURE END LIST*
D10*
X159417076Y-55559234D02*
X159417076Y-54157154D01*
X159951202Y-54157154D01*
X160084733Y-54223920D01*
X160151499Y-54290685D01*
X160218265Y-54424217D01*
X160218265Y-54624514D01*
X160151499Y-54758045D01*
X160084733Y-54824811D01*
X159951202Y-54891577D01*
X159417076Y-54891577D01*
X161019453Y-55559234D02*
X160885922Y-55492468D01*
X160819156Y-55425702D01*
X160752390Y-55292171D01*
X160752390Y-54891577D01*
X160819156Y-54758045D01*
X160885922Y-54691280D01*
X161019453Y-54624514D01*
X161219750Y-54624514D01*
X161353282Y-54691280D01*
X161420048Y-54758045D01*
X161486813Y-54891577D01*
X161486813Y-55292171D01*
X161420048Y-55425702D01*
X161353282Y-55492468D01*
X161219750Y-55559234D01*
X161019453Y-55559234D01*
X162087705Y-55559234D02*
X162087705Y-54624514D01*
X162087705Y-54891577D02*
X162154470Y-54758045D01*
X162221236Y-54691280D01*
X162354768Y-54624514D01*
X162488299Y-54624514D01*
X162755362Y-54624514D02*
X163289488Y-54624514D01*
X162955659Y-54157154D02*
X162955659Y-55358937D01*
X163022425Y-55492468D01*
X163155956Y-55559234D01*
X163289488Y-55559234D01*
X163756848Y-54624514D02*
X163756848Y-55559234D01*
X163756848Y-54758045D02*
X163823613Y-54691280D01*
X163957145Y-54624514D01*
X164157442Y-54624514D01*
X164290973Y-54691280D01*
X164357739Y-54824811D01*
X164357739Y-55559234D01*
X165626288Y-55559234D02*
X165626288Y-54824811D01*
X165559522Y-54691280D01*
X165425990Y-54624514D01*
X165158928Y-54624514D01*
X165025396Y-54691280D01*
X165626288Y-55492468D02*
X165492756Y-55559234D01*
X165158928Y-55559234D01*
X165025396Y-55492468D01*
X164958630Y-55358937D01*
X164958630Y-55225405D01*
X165025396Y-55091874D01*
X165158928Y-55025108D01*
X165492756Y-55025108D01*
X165626288Y-54958342D01*
X166293945Y-54624514D02*
X166293945Y-55559234D01*
X166293945Y-54758045D02*
X166360710Y-54691280D01*
X166494242Y-54624514D01*
X166694539Y-54624514D01*
X166828070Y-54691280D01*
X166894836Y-54824811D01*
X166894836Y-55559234D01*
X168163385Y-55559234D02*
X168163385Y-54157154D01*
X168163385Y-55492468D02*
X168029853Y-55559234D01*
X167762790Y-55559234D01*
X167629259Y-55492468D01*
X167562493Y-55425702D01*
X167495728Y-55292171D01*
X167495728Y-54891577D01*
X167562493Y-54758045D01*
X167629259Y-54691280D01*
X167762790Y-54624514D01*
X168029853Y-54624514D01*
X168163385Y-54691280D01*
X168831042Y-55425702D02*
X168897808Y-55492468D01*
X168831042Y-55559234D01*
X168764276Y-55492468D01*
X168831042Y-55425702D01*
X168831042Y-55559234D01*
X170099590Y-55492468D02*
X169966059Y-55559234D01*
X169698996Y-55559234D01*
X169565465Y-55492468D01*
X169498699Y-55425702D01*
X169431933Y-55292171D01*
X169431933Y-54891577D01*
X169498699Y-54758045D01*
X169565465Y-54691280D01*
X169698996Y-54624514D01*
X169966059Y-54624514D01*
X170099590Y-54691280D01*
X170900779Y-55559234D02*
X170767248Y-55492468D01*
X170700482Y-55425702D01*
X170633716Y-55292171D01*
X170633716Y-54891577D01*
X170700482Y-54758045D01*
X170767248Y-54691280D01*
X170900779Y-54624514D01*
X171101076Y-54624514D01*
X171234608Y-54691280D01*
X171301373Y-54758045D01*
X171368139Y-54891577D01*
X171368139Y-55292171D01*
X171301373Y-55425702D01*
X171234608Y-55492468D01*
X171101076Y-55559234D01*
X170900779Y-55559234D01*
X171969030Y-55559234D02*
X171969030Y-54624514D01*
X171969030Y-54758045D02*
X172035796Y-54691280D01*
X172169328Y-54624514D01*
X172369625Y-54624514D01*
X172503156Y-54691280D01*
X172569922Y-54824811D01*
X172569922Y-55559234D01*
X172569922Y-54824811D02*
X172636688Y-54691280D01*
X172770219Y-54624514D01*
X172970516Y-54624514D01*
X173104048Y-54691280D01*
X173170813Y-54824811D01*
X173170813Y-55559234D01*
D11*
%TO.C,TP3*%
X178753407Y-102942571D02*
X179406550Y-102942571D01*
X179079978Y-104085571D02*
X179079978Y-102942571D01*
X179787550Y-104085571D02*
X179787550Y-102942571D01*
X180222978Y-102942571D01*
X180331835Y-102997000D01*
X180386264Y-103051428D01*
X180440692Y-103160285D01*
X180440692Y-103323571D01*
X180386264Y-103432428D01*
X180331835Y-103486857D01*
X180222978Y-103541285D01*
X179787550Y-103541285D01*
X180821692Y-102942571D02*
X181529264Y-102942571D01*
X181148264Y-103378000D01*
X181311550Y-103378000D01*
X181420407Y-103432428D01*
X181474835Y-103486857D01*
X181529264Y-103595714D01*
X181529264Y-103867857D01*
X181474835Y-103976714D01*
X181420407Y-104031142D01*
X181311550Y-104085571D01*
X180984978Y-104085571D01*
X180876121Y-104031142D01*
X180821692Y-103976714D01*
%TO.C,JP2*%
X188337371Y-63834735D02*
X189153800Y-63834735D01*
X189317085Y-63889164D01*
X189425942Y-63998021D01*
X189480371Y-64161307D01*
X189480371Y-64270164D01*
X189480371Y-63290450D02*
X188337371Y-63290450D01*
X188337371Y-62855021D01*
X188391800Y-62746164D01*
X188446228Y-62691735D01*
X188555085Y-62637307D01*
X188718371Y-62637307D01*
X188827228Y-62691735D01*
X188881657Y-62746164D01*
X188936085Y-62855021D01*
X188936085Y-63290450D01*
X188446228Y-62201878D02*
X188391800Y-62147450D01*
X188337371Y-62038592D01*
X188337371Y-61766450D01*
X188391800Y-61657592D01*
X188446228Y-61603164D01*
X188555085Y-61548735D01*
X188663942Y-61548735D01*
X188827228Y-61603164D01*
X189480371Y-62256307D01*
X189480371Y-61548735D01*
D12*
%TO.C,R3*%
X180488287Y-91562161D02*
X180098820Y-91005780D01*
X179820630Y-91562161D02*
X179820630Y-90393761D01*
X180265735Y-90393761D01*
X180377011Y-90449400D01*
X180432649Y-90505038D01*
X180488287Y-90616314D01*
X180488287Y-90783228D01*
X180432649Y-90894504D01*
X180377011Y-90950142D01*
X180265735Y-91005780D01*
X179820630Y-91005780D01*
X180877754Y-90393761D02*
X181601049Y-90393761D01*
X181211582Y-90838866D01*
X181378497Y-90838866D01*
X181489773Y-90894504D01*
X181545411Y-90950142D01*
X181601049Y-91061419D01*
X181601049Y-91339609D01*
X181545411Y-91450885D01*
X181489773Y-91506523D01*
X181378497Y-91562161D01*
X181044668Y-91562161D01*
X180933392Y-91506523D01*
X180877754Y-91450885D01*
D11*
%TO.C,J1*%
X163648571Y-90597264D02*
X164465000Y-90597264D01*
X164628285Y-90651692D01*
X164737142Y-90760550D01*
X164791571Y-90923835D01*
X164791571Y-91032692D01*
X164791571Y-89454264D02*
X164791571Y-90107407D01*
X164791571Y-89780835D02*
X163648571Y-89780835D01*
X163811857Y-89889692D01*
X163920714Y-89998550D01*
X163975142Y-90107407D01*
%TO.C,JP4*%
X147569464Y-95576571D02*
X147569464Y-96393000D01*
X147515035Y-96556285D01*
X147406178Y-96665142D01*
X147242892Y-96719571D01*
X147134035Y-96719571D01*
X148113750Y-96719571D02*
X148113750Y-95576571D01*
X148549178Y-95576571D01*
X148658035Y-95631000D01*
X148712464Y-95685428D01*
X148766892Y-95794285D01*
X148766892Y-95957571D01*
X148712464Y-96066428D01*
X148658035Y-96120857D01*
X148549178Y-96175285D01*
X148113750Y-96175285D01*
X149746607Y-95957571D02*
X149746607Y-96719571D01*
X149474464Y-95522142D02*
X149202321Y-96338571D01*
X149909892Y-96338571D01*
D13*
%TO.C,C6*%
X145046710Y-61486868D02*
X145002199Y-61531379D01*
X144868668Y-61575889D01*
X144779647Y-61575889D01*
X144646115Y-61531379D01*
X144557094Y-61442358D01*
X144512584Y-61353337D01*
X144468073Y-61175295D01*
X144468073Y-61041763D01*
X144512584Y-60863721D01*
X144557094Y-60774700D01*
X144646115Y-60685680D01*
X144779647Y-60641169D01*
X144868668Y-60641169D01*
X145002199Y-60685680D01*
X145046710Y-60730190D01*
X145847898Y-60641169D02*
X145669856Y-60641169D01*
X145580835Y-60685680D01*
X145536325Y-60730190D01*
X145447304Y-60863721D01*
X145402793Y-61041763D01*
X145402793Y-61397847D01*
X145447304Y-61486868D01*
X145491814Y-61531379D01*
X145580835Y-61575889D01*
X145758877Y-61575889D01*
X145847898Y-61531379D01*
X145892409Y-61486868D01*
X145936919Y-61397847D01*
X145936919Y-61175295D01*
X145892409Y-61086274D01*
X145847898Y-61041763D01*
X145758877Y-60997253D01*
X145580835Y-60997253D01*
X145491814Y-61041763D01*
X145447304Y-61086274D01*
X145402793Y-61175295D01*
%TO.C,C7*%
X125387110Y-87598068D02*
X125342599Y-87642579D01*
X125209068Y-87687089D01*
X125120047Y-87687089D01*
X124986515Y-87642579D01*
X124897494Y-87553558D01*
X124852984Y-87464537D01*
X124808473Y-87286495D01*
X124808473Y-87152963D01*
X124852984Y-86974921D01*
X124897494Y-86885900D01*
X124986515Y-86796880D01*
X125120047Y-86752369D01*
X125209068Y-86752369D01*
X125342599Y-86796880D01*
X125387110Y-86841390D01*
X125698683Y-86752369D02*
X126321830Y-86752369D01*
X125921235Y-87687089D01*
%TO.C,C10*%
X123382307Y-56686268D02*
X123337796Y-56730779D01*
X123204265Y-56775289D01*
X123115244Y-56775289D01*
X122981712Y-56730779D01*
X122892691Y-56641758D01*
X122848181Y-56552737D01*
X122803670Y-56374695D01*
X122803670Y-56241163D01*
X122848181Y-56063121D01*
X122892691Y-55974100D01*
X122981712Y-55885080D01*
X123115244Y-55840569D01*
X123204265Y-55840569D01*
X123337796Y-55885080D01*
X123382307Y-55929590D01*
X124272516Y-56775289D02*
X123738390Y-56775289D01*
X124005453Y-56775289D02*
X124005453Y-55840569D01*
X123916432Y-55974100D01*
X123827411Y-56063121D01*
X123738390Y-56107632D01*
X124851152Y-55840569D02*
X124940173Y-55840569D01*
X125029194Y-55885080D01*
X125073705Y-55929590D01*
X125118215Y-56018611D01*
X125162726Y-56196653D01*
X125162726Y-56419205D01*
X125118215Y-56597247D01*
X125073705Y-56686268D01*
X125029194Y-56730779D01*
X124940173Y-56775289D01*
X124851152Y-56775289D01*
X124762131Y-56730779D01*
X124717621Y-56686268D01*
X124673110Y-56597247D01*
X124628600Y-56419205D01*
X124628600Y-56196653D01*
X124673110Y-56018611D01*
X124717621Y-55929590D01*
X124762131Y-55885080D01*
X124851152Y-55840569D01*
D11*
%TO.C,TP4*%
X134049407Y-49094571D02*
X134702550Y-49094571D01*
X134375978Y-50237571D02*
X134375978Y-49094571D01*
X135083550Y-50237571D02*
X135083550Y-49094571D01*
X135518978Y-49094571D01*
X135627835Y-49149000D01*
X135682264Y-49203428D01*
X135736692Y-49312285D01*
X135736692Y-49475571D01*
X135682264Y-49584428D01*
X135627835Y-49638857D01*
X135518978Y-49693285D01*
X135083550Y-49693285D01*
X136716407Y-49475571D02*
X136716407Y-50237571D01*
X136444264Y-49040142D02*
X136172121Y-49856571D01*
X136879692Y-49856571D01*
%TO.C,TP5*%
X153607407Y-98370571D02*
X154260550Y-98370571D01*
X153933978Y-99513571D02*
X153933978Y-98370571D01*
X154641550Y-99513571D02*
X154641550Y-98370571D01*
X155076978Y-98370571D01*
X155185835Y-98425000D01*
X155240264Y-98479428D01*
X155294692Y-98588285D01*
X155294692Y-98751571D01*
X155240264Y-98860428D01*
X155185835Y-98914857D01*
X155076978Y-98969285D01*
X154641550Y-98969285D01*
X156328835Y-98370571D02*
X155784550Y-98370571D01*
X155730121Y-98914857D01*
X155784550Y-98860428D01*
X155893407Y-98806000D01*
X156165550Y-98806000D01*
X156274407Y-98860428D01*
X156328835Y-98914857D01*
X156383264Y-99023714D01*
X156383264Y-99295857D01*
X156328835Y-99404714D01*
X156274407Y-99459142D01*
X156165550Y-99513571D01*
X155893407Y-99513571D01*
X155784550Y-99459142D01*
X155730121Y-99404714D01*
D13*
%TO.C,C2*%
X172608510Y-65373068D02*
X172563999Y-65417579D01*
X172430468Y-65462089D01*
X172341447Y-65462089D01*
X172207915Y-65417579D01*
X172118894Y-65328558D01*
X172074384Y-65239537D01*
X172029873Y-65061495D01*
X172029873Y-64927963D01*
X172074384Y-64749921D01*
X172118894Y-64660900D01*
X172207915Y-64571880D01*
X172341447Y-64527369D01*
X172430468Y-64527369D01*
X172563999Y-64571880D01*
X172608510Y-64616390D01*
X172964593Y-64616390D02*
X173009104Y-64571880D01*
X173098125Y-64527369D01*
X173320677Y-64527369D01*
X173409698Y-64571880D01*
X173454209Y-64616390D01*
X173498719Y-64705411D01*
X173498719Y-64794432D01*
X173454209Y-64927963D01*
X172920083Y-65462089D01*
X173498719Y-65462089D01*
D10*
%TO.C,H3*%
X110128434Y-99444777D02*
X110128434Y-98957097D01*
X110128434Y-99189325D02*
X110407108Y-99189325D01*
X110407108Y-99444777D02*
X110407108Y-98957097D01*
X110592891Y-98957097D02*
X110894788Y-98957097D01*
X110732228Y-99142880D01*
X110801897Y-99142880D01*
X110848342Y-99166102D01*
X110871565Y-99189325D01*
X110894788Y-99235771D01*
X110894788Y-99351885D01*
X110871565Y-99398331D01*
X110848342Y-99421554D01*
X110801897Y-99444777D01*
X110662560Y-99444777D01*
X110616114Y-99421554D01*
X110592891Y-99398331D01*
D12*
%TO.C,R1*%
X163556445Y-102865161D02*
X163166979Y-102308780D01*
X162888788Y-102865161D02*
X162888788Y-101696761D01*
X163333893Y-101696761D01*
X163445169Y-101752400D01*
X163500807Y-101808038D01*
X163556445Y-101919314D01*
X163556445Y-102086228D01*
X163500807Y-102197504D01*
X163445169Y-102253142D01*
X163333893Y-102308780D01*
X162888788Y-102308780D01*
X164669207Y-102865161D02*
X164001550Y-102865161D01*
X164335379Y-102865161D02*
X164335379Y-101696761D01*
X164224102Y-101863676D01*
X164112826Y-101974952D01*
X164001550Y-102030590D01*
D13*
%TO.C,C1*%
X160270516Y-65017468D02*
X160226006Y-65061979D01*
X160092474Y-65106489D01*
X160003453Y-65106489D01*
X159869922Y-65061979D01*
X159780901Y-64972958D01*
X159736390Y-64883937D01*
X159691880Y-64705895D01*
X159691880Y-64572363D01*
X159736390Y-64394321D01*
X159780901Y-64305300D01*
X159869922Y-64216280D01*
X160003453Y-64171769D01*
X160092474Y-64171769D01*
X160226006Y-64216280D01*
X160270516Y-64260790D01*
X161160726Y-65106489D02*
X160626600Y-65106489D01*
X160893663Y-65106489D02*
X160893663Y-64171769D01*
X160804642Y-64305300D01*
X160715621Y-64394321D01*
X160626600Y-64438832D01*
D12*
%TO.C,D1*%
X121120988Y-73858361D02*
X121120988Y-72689961D01*
X121399179Y-72689961D01*
X121566093Y-72745600D01*
X121677369Y-72856876D01*
X121733007Y-72968152D01*
X121788645Y-73190704D01*
X121788645Y-73357619D01*
X121733007Y-73580171D01*
X121677369Y-73691447D01*
X121566093Y-73802723D01*
X121399179Y-73858361D01*
X121120988Y-73858361D01*
X122901407Y-73858361D02*
X122233750Y-73858361D01*
X122567579Y-73858361D02*
X122567579Y-72689961D01*
X122456302Y-72856876D01*
X122345026Y-72968152D01*
X122233750Y-73023790D01*
D14*
%TO.C,SW1*%
X197323349Y-77688391D02*
X197376762Y-77706195D01*
X197465783Y-77706195D01*
X197501391Y-77688391D01*
X197519195Y-77670587D01*
X197536999Y-77634979D01*
X197536999Y-77599370D01*
X197519195Y-77563762D01*
X197501391Y-77545958D01*
X197465783Y-77528153D01*
X197394566Y-77510349D01*
X197358957Y-77492545D01*
X197341153Y-77474741D01*
X197323349Y-77439132D01*
X197323349Y-77403524D01*
X197341153Y-77367916D01*
X197358957Y-77350112D01*
X197394566Y-77332307D01*
X197483587Y-77332307D01*
X197536999Y-77350112D01*
X197661629Y-77332307D02*
X197750650Y-77706195D01*
X197821866Y-77439132D01*
X197893083Y-77706195D01*
X197982104Y-77332307D01*
X198320384Y-77706195D02*
X198106733Y-77706195D01*
X198213559Y-77706195D02*
X198213559Y-77332307D01*
X198177950Y-77385720D01*
X198142342Y-77421328D01*
X198106733Y-77439132D01*
D13*
%TO.C,C9*%
X125386916Y-89426868D02*
X125342406Y-89471379D01*
X125208874Y-89515889D01*
X125119853Y-89515889D01*
X124986322Y-89471379D01*
X124897301Y-89382358D01*
X124852790Y-89293337D01*
X124808280Y-89115295D01*
X124808280Y-88981763D01*
X124852790Y-88803721D01*
X124897301Y-88714700D01*
X124986322Y-88625680D01*
X125119853Y-88581169D01*
X125208874Y-88581169D01*
X125342406Y-88625680D01*
X125386916Y-88670190D01*
X125832021Y-89515889D02*
X126010063Y-89515889D01*
X126099084Y-89471379D01*
X126143594Y-89426868D01*
X126232615Y-89293337D01*
X126277126Y-89115295D01*
X126277126Y-88759211D01*
X126232615Y-88670190D01*
X126188105Y-88625680D01*
X126099084Y-88581169D01*
X125921042Y-88581169D01*
X125832021Y-88625680D01*
X125787510Y-88670190D01*
X125743000Y-88759211D01*
X125743000Y-88981763D01*
X125787510Y-89070784D01*
X125832021Y-89115295D01*
X125921042Y-89159805D01*
X126099084Y-89159805D01*
X126188105Y-89115295D01*
X126232615Y-89070784D01*
X126277126Y-88981763D01*
D12*
%TO.C,U8*%
X143671350Y-90723961D02*
X143671350Y-91669809D01*
X143726988Y-91781085D01*
X143782626Y-91836723D01*
X143893902Y-91892361D01*
X144116455Y-91892361D01*
X144227731Y-91836723D01*
X144283369Y-91781085D01*
X144339007Y-91669809D01*
X144339007Y-90723961D01*
X145062302Y-91224704D02*
X144951026Y-91169066D01*
X144895388Y-91113428D01*
X144839750Y-91002152D01*
X144839750Y-90946514D01*
X144895388Y-90835238D01*
X144951026Y-90779600D01*
X145062302Y-90723961D01*
X145284855Y-90723961D01*
X145396131Y-90779600D01*
X145451769Y-90835238D01*
X145507407Y-90946514D01*
X145507407Y-91002152D01*
X145451769Y-91113428D01*
X145396131Y-91169066D01*
X145284855Y-91224704D01*
X145062302Y-91224704D01*
X144951026Y-91280342D01*
X144895388Y-91335980D01*
X144839750Y-91447257D01*
X144839750Y-91669809D01*
X144895388Y-91781085D01*
X144951026Y-91836723D01*
X145062302Y-91892361D01*
X145284855Y-91892361D01*
X145396131Y-91836723D01*
X145451769Y-91781085D01*
X145507407Y-91669809D01*
X145507407Y-91447257D01*
X145451769Y-91335980D01*
X145396131Y-91280342D01*
X145284855Y-91224704D01*
D10*
%TO.C,Y1*%
X164105771Y-74166548D02*
X164105771Y-74398777D01*
X163943211Y-73911097D02*
X164105771Y-74166548D01*
X164268331Y-73911097D01*
X164686342Y-74398777D02*
X164407668Y-74398777D01*
X164547005Y-74398777D02*
X164547005Y-73911097D01*
X164500560Y-73980765D01*
X164454114Y-74027211D01*
X164407668Y-74050434D01*
D13*
%TO.C,C5*%
X165731516Y-88995068D02*
X165687006Y-89039579D01*
X165553474Y-89084089D01*
X165464453Y-89084089D01*
X165330922Y-89039579D01*
X165241901Y-88950558D01*
X165197390Y-88861537D01*
X165152880Y-88683495D01*
X165152880Y-88549963D01*
X165197390Y-88371921D01*
X165241901Y-88282900D01*
X165330922Y-88193880D01*
X165464453Y-88149369D01*
X165553474Y-88149369D01*
X165687006Y-88193880D01*
X165731516Y-88238390D01*
X166577215Y-88149369D02*
X166132110Y-88149369D01*
X166087600Y-88594474D01*
X166132110Y-88549963D01*
X166221131Y-88505453D01*
X166443684Y-88505453D01*
X166532705Y-88549963D01*
X166577215Y-88594474D01*
X166621726Y-88683495D01*
X166621726Y-88906047D01*
X166577215Y-88995068D01*
X166532705Y-89039579D01*
X166443684Y-89084089D01*
X166221131Y-89084089D01*
X166132110Y-89039579D01*
X166087600Y-88995068D01*
%TO.C,C3*%
X171522716Y-89096668D02*
X171478206Y-89141179D01*
X171344674Y-89185689D01*
X171255653Y-89185689D01*
X171122122Y-89141179D01*
X171033101Y-89052158D01*
X170988590Y-88963137D01*
X170944080Y-88785095D01*
X170944080Y-88651563D01*
X170988590Y-88473521D01*
X171033101Y-88384500D01*
X171122122Y-88295480D01*
X171255653Y-88250969D01*
X171344674Y-88250969D01*
X171478206Y-88295480D01*
X171522716Y-88339990D01*
X171834289Y-88250969D02*
X172412926Y-88250969D01*
X172101352Y-88607053D01*
X172234884Y-88607053D01*
X172323905Y-88651563D01*
X172368415Y-88696074D01*
X172412926Y-88785095D01*
X172412926Y-89007647D01*
X172368415Y-89096668D01*
X172323905Y-89141179D01*
X172234884Y-89185689D01*
X171967821Y-89185689D01*
X171878800Y-89141179D01*
X171834289Y-89096668D01*
D11*
%TO.C,JP5*%
X151202571Y-53420735D02*
X152019000Y-53420735D01*
X152182285Y-53475164D01*
X152291142Y-53584021D01*
X152345571Y-53747307D01*
X152345571Y-53856164D01*
X152345571Y-52876450D02*
X151202571Y-52876450D01*
X151202571Y-52441021D01*
X151257000Y-52332164D01*
X151311428Y-52277735D01*
X151420285Y-52223307D01*
X151583571Y-52223307D01*
X151692428Y-52277735D01*
X151746857Y-52332164D01*
X151801285Y-52441021D01*
X151801285Y-52876450D01*
X151202571Y-51189164D02*
X151202571Y-51733450D01*
X151746857Y-51787878D01*
X151692428Y-51733450D01*
X151638000Y-51624592D01*
X151638000Y-51352450D01*
X151692428Y-51243592D01*
X151746857Y-51189164D01*
X151855714Y-51134735D01*
X152127857Y-51134735D01*
X152236714Y-51189164D01*
X152291142Y-51243592D01*
X152345571Y-51352450D01*
X152345571Y-51624592D01*
X152291142Y-51733450D01*
X152236714Y-51787878D01*
D10*
%TO.C,H1*%
X199378434Y-49194777D02*
X199378434Y-48707097D01*
X199378434Y-48939325D02*
X199657108Y-48939325D01*
X199657108Y-49194777D02*
X199657108Y-48707097D01*
X200144788Y-49194777D02*
X199866114Y-49194777D01*
X200005451Y-49194777D02*
X200005451Y-48707097D01*
X199959005Y-48776765D01*
X199912560Y-48823211D01*
X199866114Y-48846434D01*
D11*
%TO.C,JP1*%
X199208571Y-88438264D02*
X200025000Y-88438264D01*
X200188285Y-88492692D01*
X200297142Y-88601550D01*
X200351571Y-88764835D01*
X200351571Y-88873692D01*
X200351571Y-87893978D02*
X199208571Y-87893978D01*
X199208571Y-87458550D01*
X199263000Y-87349692D01*
X199317428Y-87295264D01*
X199426285Y-87240835D01*
X199589571Y-87240835D01*
X199698428Y-87295264D01*
X199752857Y-87349692D01*
X199807285Y-87458550D01*
X199807285Y-87893978D01*
X200351571Y-86152264D02*
X200351571Y-86805407D01*
X200351571Y-86478835D02*
X199208571Y-86478835D01*
X199371857Y-86587692D01*
X199480714Y-86696550D01*
X199535142Y-86805407D01*
D12*
%TO.C,R6*%
X142042887Y-52522361D02*
X141653420Y-51965980D01*
X141375230Y-52522361D02*
X141375230Y-51353961D01*
X141820335Y-51353961D01*
X141931611Y-51409600D01*
X141987249Y-51465238D01*
X142042887Y-51576514D01*
X142042887Y-51743428D01*
X141987249Y-51854704D01*
X141931611Y-51910342D01*
X141820335Y-51965980D01*
X141375230Y-51965980D01*
X143044373Y-51353961D02*
X142821820Y-51353961D01*
X142710544Y-51409600D01*
X142654906Y-51465238D01*
X142543630Y-51632152D01*
X142487992Y-51854704D01*
X142487992Y-52299809D01*
X142543630Y-52411085D01*
X142599268Y-52466723D01*
X142710544Y-52522361D01*
X142933097Y-52522361D01*
X143044373Y-52466723D01*
X143100011Y-52411085D01*
X143155649Y-52299809D01*
X143155649Y-52021619D01*
X143100011Y-51910342D01*
X143044373Y-51854704D01*
X142933097Y-51799066D01*
X142710544Y-51799066D01*
X142599268Y-51854704D01*
X142543630Y-51910342D01*
X142487992Y-52021619D01*
D11*
%TO.C,JP8*%
X120570171Y-85272335D02*
X121386600Y-85272335D01*
X121549885Y-85326764D01*
X121658742Y-85435621D01*
X121713171Y-85598907D01*
X121713171Y-85707764D01*
X121713171Y-84728050D02*
X120570171Y-84728050D01*
X120570171Y-84292621D01*
X120624600Y-84183764D01*
X120679028Y-84129335D01*
X120787885Y-84074907D01*
X120951171Y-84074907D01*
X121060028Y-84129335D01*
X121114457Y-84183764D01*
X121168885Y-84292621D01*
X121168885Y-84728050D01*
X121060028Y-83421764D02*
X121005600Y-83530621D01*
X120951171Y-83585050D01*
X120842314Y-83639478D01*
X120787885Y-83639478D01*
X120679028Y-83585050D01*
X120624600Y-83530621D01*
X120570171Y-83421764D01*
X120570171Y-83204050D01*
X120624600Y-83095192D01*
X120679028Y-83040764D01*
X120787885Y-82986335D01*
X120842314Y-82986335D01*
X120951171Y-83040764D01*
X121005600Y-83095192D01*
X121060028Y-83204050D01*
X121060028Y-83421764D01*
X121114457Y-83530621D01*
X121168885Y-83585050D01*
X121277742Y-83639478D01*
X121495457Y-83639478D01*
X121604314Y-83585050D01*
X121658742Y-83530621D01*
X121713171Y-83421764D01*
X121713171Y-83204050D01*
X121658742Y-83095192D01*
X121604314Y-83040764D01*
X121495457Y-82986335D01*
X121277742Y-82986335D01*
X121168885Y-83040764D01*
X121114457Y-83095192D01*
X121060028Y-83204050D01*
%TO.C,J3*%
X175179264Y-93493771D02*
X175179264Y-94310200D01*
X175124835Y-94473485D01*
X175015978Y-94582342D01*
X174852692Y-94636771D01*
X174743835Y-94636771D01*
X175614692Y-93493771D02*
X176322264Y-93493771D01*
X175941264Y-93929200D01*
X176104550Y-93929200D01*
X176213407Y-93983628D01*
X176267835Y-94038057D01*
X176322264Y-94146914D01*
X176322264Y-94419057D01*
X176267835Y-94527914D01*
X176213407Y-94582342D01*
X176104550Y-94636771D01*
X175777978Y-94636771D01*
X175669121Y-94582342D01*
X175614692Y-94527914D01*
D14*
%TO.C,SW2*%
X189449349Y-68290391D02*
X189502762Y-68308195D01*
X189591783Y-68308195D01*
X189627391Y-68290391D01*
X189645195Y-68272587D01*
X189662999Y-68236979D01*
X189662999Y-68201370D01*
X189645195Y-68165762D01*
X189627391Y-68147958D01*
X189591783Y-68130153D01*
X189520566Y-68112349D01*
X189484957Y-68094545D01*
X189467153Y-68076741D01*
X189449349Y-68041132D01*
X189449349Y-68005524D01*
X189467153Y-67969916D01*
X189484957Y-67952112D01*
X189520566Y-67934307D01*
X189609587Y-67934307D01*
X189662999Y-67952112D01*
X189787629Y-67934307D02*
X189876650Y-68308195D01*
X189947866Y-68041132D01*
X190019083Y-68308195D01*
X190108104Y-67934307D01*
X190232733Y-67969916D02*
X190250538Y-67952112D01*
X190286146Y-67934307D01*
X190375167Y-67934307D01*
X190410775Y-67952112D01*
X190428580Y-67969916D01*
X190446384Y-68005524D01*
X190446384Y-68041132D01*
X190428580Y-68094545D01*
X190214929Y-68308195D01*
X190446384Y-68308195D01*
D13*
%TO.C,C4*%
X181146268Y-56026289D02*
X181190779Y-56070800D01*
X181235289Y-56204331D01*
X181235289Y-56293352D01*
X181190779Y-56426884D01*
X181101758Y-56515905D01*
X181012737Y-56560415D01*
X180834695Y-56604926D01*
X180701163Y-56604926D01*
X180523121Y-56560415D01*
X180434100Y-56515905D01*
X180345080Y-56426884D01*
X180300569Y-56293352D01*
X180300569Y-56204331D01*
X180345080Y-56070800D01*
X180389590Y-56026289D01*
X180612142Y-55225101D02*
X181235289Y-55225101D01*
X180256059Y-55447653D02*
X180923716Y-55670206D01*
X180923716Y-55091569D01*
D12*
%TO.C,R4*%
X198623645Y-69743561D02*
X198234179Y-69187180D01*
X197955988Y-69743561D02*
X197955988Y-68575161D01*
X198401093Y-68575161D01*
X198512369Y-68630800D01*
X198568007Y-68686438D01*
X198623645Y-68797714D01*
X198623645Y-68964628D01*
X198568007Y-69075904D01*
X198512369Y-69131542D01*
X198401093Y-69187180D01*
X197955988Y-69187180D01*
X199625131Y-68964628D02*
X199625131Y-69743561D01*
X199346940Y-68519523D02*
X199068750Y-69354095D01*
X199792045Y-69354095D01*
D11*
%TO.C,JP6*%
X124413735Y-53666571D02*
X124413735Y-54483000D01*
X124359307Y-54646285D01*
X124250450Y-54755142D01*
X124087164Y-54809571D01*
X123978307Y-54809571D01*
X124958021Y-54809571D02*
X124958021Y-53666571D01*
X125393450Y-53666571D01*
X125502307Y-53721000D01*
X125556735Y-53775428D01*
X125611164Y-53884285D01*
X125611164Y-54047571D01*
X125556735Y-54156428D01*
X125502307Y-54210857D01*
X125393450Y-54265285D01*
X124958021Y-54265285D01*
X126590878Y-53666571D02*
X126373164Y-53666571D01*
X126264307Y-53721000D01*
X126209878Y-53775428D01*
X126101021Y-53938714D01*
X126046592Y-54156428D01*
X126046592Y-54591857D01*
X126101021Y-54700714D01*
X126155450Y-54755142D01*
X126264307Y-54809571D01*
X126482021Y-54809571D01*
X126590878Y-54755142D01*
X126645307Y-54700714D01*
X126699735Y-54591857D01*
X126699735Y-54319714D01*
X126645307Y-54210857D01*
X126590878Y-54156428D01*
X126482021Y-54102000D01*
X126264307Y-54102000D01*
X126155450Y-54156428D01*
X126101021Y-54210857D01*
X126046592Y-54319714D01*
D10*
%TO.C,H2*%
X110128434Y-49194777D02*
X110128434Y-48707097D01*
X110128434Y-48939325D02*
X110407108Y-48939325D01*
X110407108Y-49194777D02*
X110407108Y-48707097D01*
X110616114Y-48753542D02*
X110639337Y-48730320D01*
X110685782Y-48707097D01*
X110801897Y-48707097D01*
X110848342Y-48730320D01*
X110871565Y-48753542D01*
X110894788Y-48799988D01*
X110894788Y-48846434D01*
X110871565Y-48916102D01*
X110592891Y-49194777D01*
X110894788Y-49194777D01*
D12*
%TO.C,R2*%
X183764887Y-100274361D02*
X183375420Y-99717980D01*
X183097230Y-100274361D02*
X183097230Y-99105961D01*
X183542335Y-99105961D01*
X183653611Y-99161600D01*
X183709249Y-99217238D01*
X183764887Y-99328514D01*
X183764887Y-99495428D01*
X183709249Y-99606704D01*
X183653611Y-99662342D01*
X183542335Y-99717980D01*
X183097230Y-99717980D01*
X184209992Y-99217238D02*
X184265630Y-99161600D01*
X184376906Y-99105961D01*
X184655097Y-99105961D01*
X184766373Y-99161600D01*
X184822011Y-99217238D01*
X184877649Y-99328514D01*
X184877649Y-99439790D01*
X184822011Y-99606704D01*
X184154354Y-100274361D01*
X184877649Y-100274361D01*
D11*
%TO.C,TP1*%
X189167407Y-102688571D02*
X189820550Y-102688571D01*
X189493978Y-103831571D02*
X189493978Y-102688571D01*
X190201550Y-103831571D02*
X190201550Y-102688571D01*
X190636978Y-102688571D01*
X190745835Y-102743000D01*
X190800264Y-102797428D01*
X190854692Y-102906285D01*
X190854692Y-103069571D01*
X190800264Y-103178428D01*
X190745835Y-103232857D01*
X190636978Y-103287285D01*
X190201550Y-103287285D01*
X191943264Y-103831571D02*
X191290121Y-103831571D01*
X191616692Y-103831571D02*
X191616692Y-102688571D01*
X191507835Y-102851857D01*
X191398978Y-102960714D01*
X191290121Y-103015142D01*
D10*
%TO.C,H4*%
X200034434Y-100444777D02*
X200034434Y-99957097D01*
X200034434Y-100189325D02*
X200313108Y-100189325D01*
X200313108Y-100444777D02*
X200313108Y-99957097D01*
X200754342Y-100119657D02*
X200754342Y-100444777D01*
X200638228Y-99933874D02*
X200522114Y-100282217D01*
X200824011Y-100282217D01*
D15*
%TO.C,U4*%
X190093600Y-81674970D02*
X191389000Y-81674970D01*
X191541400Y-81598770D01*
X191617600Y-81522570D01*
X191693800Y-81370170D01*
X191693800Y-81065370D01*
X191617600Y-80912970D01*
X191541400Y-80836770D01*
X191389000Y-80760570D01*
X190093600Y-80760570D01*
X190627000Y-79312770D02*
X191693800Y-79312770D01*
X190017400Y-79693770D02*
X191160400Y-80074770D01*
X191160400Y-79084170D01*
D11*
%TO.C,TP2*%
X188659407Y-89480571D02*
X189312550Y-89480571D01*
X188985978Y-90623571D02*
X188985978Y-89480571D01*
X189693550Y-90623571D02*
X189693550Y-89480571D01*
X190128978Y-89480571D01*
X190237835Y-89535000D01*
X190292264Y-89589428D01*
X190346692Y-89698285D01*
X190346692Y-89861571D01*
X190292264Y-89970428D01*
X190237835Y-90024857D01*
X190128978Y-90079285D01*
X189693550Y-90079285D01*
X190782121Y-89589428D02*
X190836550Y-89535000D01*
X190945407Y-89480571D01*
X191217550Y-89480571D01*
X191326407Y-89535000D01*
X191380835Y-89589428D01*
X191435264Y-89698285D01*
X191435264Y-89807142D01*
X191380835Y-89970428D01*
X190727692Y-90623571D01*
X191435264Y-90623571D01*
D12*
%TO.C,D2*%
X133820988Y-66238361D02*
X133820988Y-65069961D01*
X134099179Y-65069961D01*
X134266093Y-65125600D01*
X134377369Y-65236876D01*
X134433007Y-65348152D01*
X134488645Y-65570704D01*
X134488645Y-65737619D01*
X134433007Y-65960171D01*
X134377369Y-66071447D01*
X134266093Y-66182723D01*
X134099179Y-66238361D01*
X133820988Y-66238361D01*
X134933750Y-65181238D02*
X134989388Y-65125600D01*
X135100664Y-65069961D01*
X135378855Y-65069961D01*
X135490131Y-65125600D01*
X135545769Y-65181238D01*
X135601407Y-65292514D01*
X135601407Y-65403790D01*
X135545769Y-65570704D01*
X134878112Y-66238361D01*
X135601407Y-66238361D01*
D11*
%TO.C,JP9*%
X120443171Y-79014864D02*
X121259600Y-79014864D01*
X121422885Y-79069292D01*
X121531742Y-79178150D01*
X121586171Y-79341435D01*
X121586171Y-79450292D01*
X121586171Y-78470578D02*
X120443171Y-78470578D01*
X120443171Y-78035150D01*
X120497600Y-77926292D01*
X120552028Y-77871864D01*
X120660885Y-77817435D01*
X120824171Y-77817435D01*
X120933028Y-77871864D01*
X120987457Y-77926292D01*
X121041885Y-78035150D01*
X121041885Y-78470578D01*
X121586171Y-77273150D02*
X121586171Y-77055435D01*
X121531742Y-76946578D01*
X121477314Y-76892150D01*
X121314028Y-76783292D01*
X121096314Y-76728864D01*
X120660885Y-76728864D01*
X120552028Y-76783292D01*
X120497600Y-76837721D01*
X120443171Y-76946578D01*
X120443171Y-77164292D01*
X120497600Y-77273150D01*
X120552028Y-77327578D01*
X120660885Y-77382007D01*
X120933028Y-77382007D01*
X121041885Y-77327578D01*
X121096314Y-77273150D01*
X121150742Y-77164292D01*
X121150742Y-76946578D01*
X121096314Y-76837721D01*
X121041885Y-76783292D01*
X120933028Y-76728864D01*
%TO.C,JP3*%
X126191735Y-96846571D02*
X126191735Y-97663000D01*
X126137307Y-97826285D01*
X126028450Y-97935142D01*
X125865164Y-97989571D01*
X125756307Y-97989571D01*
X126736021Y-97989571D02*
X126736021Y-96846571D01*
X127171450Y-96846571D01*
X127280307Y-96901000D01*
X127334735Y-96955428D01*
X127389164Y-97064285D01*
X127389164Y-97227571D01*
X127334735Y-97336428D01*
X127280307Y-97390857D01*
X127171450Y-97445285D01*
X126736021Y-97445285D01*
X127770164Y-96846571D02*
X128477735Y-96846571D01*
X128096735Y-97282000D01*
X128260021Y-97282000D01*
X128368878Y-97336428D01*
X128423307Y-97390857D01*
X128477735Y-97499714D01*
X128477735Y-97771857D01*
X128423307Y-97880714D01*
X128368878Y-97935142D01*
X128260021Y-97989571D01*
X127933450Y-97989571D01*
X127824592Y-97935142D01*
X127770164Y-97880714D01*
%TO.C,JP7*%
X116683064Y-97303771D02*
X116683064Y-98120200D01*
X116628635Y-98283485D01*
X116519778Y-98392342D01*
X116356492Y-98446771D01*
X116247635Y-98446771D01*
X117227350Y-98446771D02*
X117227350Y-97303771D01*
X117662778Y-97303771D01*
X117771635Y-97358200D01*
X117826064Y-97412628D01*
X117880492Y-97521485D01*
X117880492Y-97684771D01*
X117826064Y-97793628D01*
X117771635Y-97848057D01*
X117662778Y-97902485D01*
X117227350Y-97902485D01*
X118261492Y-97303771D02*
X119023492Y-97303771D01*
X118533635Y-98446771D01*
D10*
%TO.C,J2*%
X109239097Y-63159819D02*
X109587440Y-63159819D01*
X109657108Y-63183042D01*
X109703554Y-63229488D01*
X109726777Y-63299156D01*
X109726777Y-63345602D01*
X109285542Y-62950813D02*
X109262320Y-62927590D01*
X109239097Y-62881145D01*
X109239097Y-62765030D01*
X109262320Y-62718585D01*
X109285542Y-62695362D01*
X109331988Y-62672139D01*
X109378434Y-62672139D01*
X109448102Y-62695362D01*
X109726777Y-62974036D01*
X109726777Y-62672139D01*
D16*
%TO.C,JP2*%
X189611000Y-61214000D02*
X190246000Y-60579000D01*
X187706000Y-55499000D02*
X187706000Y-54229000D01*
X187706000Y-60579000D02*
X188341000Y-61214000D01*
X188341000Y-58674000D02*
X187706000Y-58039000D01*
X188341000Y-61214000D02*
X189611000Y-61214000D01*
X187706000Y-60579000D02*
X187706000Y-59309000D01*
X187706000Y-58039000D02*
X187706000Y-56769000D01*
X190246000Y-56769000D02*
X190246000Y-58039000D01*
X187706000Y-59309000D02*
X188341000Y-58674000D01*
X188341000Y-56134000D02*
X187706000Y-55499000D01*
X187706000Y-56769000D02*
X188341000Y-56134000D01*
X189611000Y-58674000D02*
X190246000Y-59309000D01*
X189611000Y-56134000D02*
X190246000Y-56769000D01*
X188341000Y-53594000D02*
X189611000Y-53594000D01*
X188341000Y-56134000D02*
X189611000Y-56134000D01*
X190246000Y-54229000D02*
X190246000Y-55499000D01*
X190246000Y-58039000D02*
X189611000Y-58674000D01*
X187706000Y-54229000D02*
X188341000Y-53594000D01*
X189611000Y-53594000D02*
X190246000Y-54229000D01*
X188341000Y-58674000D02*
X189611000Y-58674000D01*
X190246000Y-55499000D02*
X189611000Y-56134000D01*
X190246000Y-59309000D02*
X190246000Y-60579000D01*
%TO.C,J1*%
X158242000Y-95377000D02*
X158242000Y-96647000D01*
X163322000Y-94107000D02*
X162687000Y-94742000D01*
X162687000Y-89662000D02*
X163322000Y-90297000D01*
X158877000Y-89662000D02*
X158242000Y-90297000D01*
X163322000Y-95377000D02*
X163322000Y-96647000D01*
X163322000Y-90297000D02*
X163322000Y-91567000D01*
X158242000Y-91567000D02*
X158877000Y-92202000D01*
X163322000Y-96647000D02*
X162687000Y-97282000D01*
X162687000Y-92202000D02*
X163322000Y-92837000D01*
X158877000Y-94742000D02*
X158242000Y-95377000D01*
X158242000Y-92837000D02*
X158242000Y-94107000D01*
X158877000Y-92202000D02*
X158242000Y-92837000D01*
X162687000Y-94742000D02*
X163322000Y-95377000D01*
X163322000Y-91567000D02*
X162687000Y-92202000D01*
X158242000Y-90297000D02*
X158242000Y-91567000D01*
X162687000Y-97282000D02*
X158877000Y-97282000D01*
X162687000Y-94742000D02*
X158877000Y-94742000D01*
X158877000Y-89662000D02*
X162687000Y-89662000D01*
X163322000Y-92837000D02*
X163322000Y-94107000D01*
X162687000Y-92202000D02*
X158877000Y-92202000D01*
X158242000Y-96647000D02*
X158877000Y-97282000D01*
X158242000Y-94107000D02*
X158877000Y-94742000D01*
%TO.C,JP4*%
X142621000Y-98806000D02*
X143891000Y-98806000D01*
X147066000Y-99441000D02*
X147066000Y-100711000D01*
X140081000Y-98806000D02*
X141351000Y-98806000D01*
X149606000Y-100711000D02*
X148971000Y-101346000D01*
X147066000Y-100711000D02*
X147701000Y-101346000D01*
X147701000Y-98806000D02*
X148971000Y-98806000D01*
X144526000Y-99441000D02*
X144526000Y-100711000D01*
X147066000Y-100711000D02*
X146431000Y-101346000D01*
X141986000Y-99441000D02*
X141986000Y-100711000D01*
X144526000Y-100711000D02*
X143891000Y-101346000D01*
X141351000Y-101346000D02*
X140081000Y-101346000D01*
X142621000Y-101346000D02*
X141986000Y-100711000D01*
X146431000Y-101346000D02*
X145161000Y-101346000D01*
X146431000Y-98806000D02*
X147066000Y-99441000D01*
X139446000Y-99441000D02*
X139446000Y-100711000D01*
X140081000Y-98806000D02*
X139446000Y-99441000D01*
X145161000Y-98806000D02*
X146431000Y-98806000D01*
X147701000Y-98806000D02*
X147066000Y-99441000D01*
X141986000Y-99441000D02*
X142621000Y-98806000D01*
X149606000Y-99441000D02*
X149606000Y-100711000D01*
X143891000Y-101346000D02*
X142621000Y-101346000D01*
X139446000Y-100711000D02*
X140081000Y-101346000D01*
X144526000Y-99441000D02*
X145161000Y-98806000D01*
X148971000Y-101346000D02*
X147701000Y-101346000D01*
X143891000Y-98806000D02*
X144526000Y-99441000D01*
X141351000Y-98806000D02*
X141986000Y-99441000D01*
X145161000Y-101346000D02*
X144526000Y-100711000D01*
X141986000Y-100711000D02*
X141351000Y-101346000D01*
X148971000Y-98806000D02*
X149606000Y-99441000D01*
%TO.C,D1*%
G36*
X122174000Y-72032000D02*
G01*
X121874000Y-72032000D01*
X121874000Y-71732000D01*
X122174000Y-71732000D01*
X122174000Y-72032000D01*
G37*
G36*
X122174000Y-71357000D02*
G01*
X121874000Y-71357000D01*
X121874000Y-71207000D01*
X122174000Y-71207000D01*
X122174000Y-71357000D01*
G37*
G36*
X122174000Y-72557000D02*
G01*
X121874000Y-72557000D01*
X121874000Y-72407000D01*
X122174000Y-72407000D01*
X122174000Y-72557000D01*
G37*
D17*
%TO.C,SW1*%
X200660000Y-78262000D02*
X200660000Y-80742000D01*
X195580000Y-80742000D02*
X195580000Y-78232000D01*
X199660000Y-82042000D02*
X196580000Y-82042000D01*
X196580000Y-76962000D02*
X199660000Y-76962000D01*
X199390000Y-79502000D02*
G75*
G03*
X199390000Y-79502000I-1270000J0D01*
G01*
D11*
%TO.C,U8*%
X130546600Y-70027800D02*
X145786600Y-70027800D01*
X145786600Y-90347800D02*
X130546600Y-90347800D01*
X130546600Y-90347800D02*
X130546600Y-70027800D01*
X145786600Y-70027800D02*
X145786600Y-90347800D01*
D18*
X146666600Y-89637800D02*
G75*
G03*
X146666600Y-89637800I-100000J0D01*
G01*
D16*
%TO.C,Y1*%
X158623000Y-72263000D02*
X158623000Y-73279000D01*
X170053000Y-68961000D02*
X170053000Y-69977000D01*
D19*
X164973000Y-71120000D02*
X165354000Y-71120000D01*
X160909000Y-69850000D02*
X167767000Y-69850000D01*
D16*
X164973000Y-71755000D02*
X164973000Y-71120000D01*
X170053000Y-72263000D02*
X170053000Y-73279000D01*
D19*
X167767000Y-72390000D02*
X160909000Y-72390000D01*
D16*
X163703000Y-71120000D02*
X163703000Y-70485000D01*
X158623000Y-68961000D02*
X158623000Y-69977000D01*
X163703000Y-71755000D02*
X163703000Y-71120000D01*
X158877000Y-73533000D02*
X169799000Y-73533000D01*
X158877000Y-68707000D02*
X169799000Y-68707000D01*
X164084000Y-71755000D02*
X164592000Y-71755000D01*
D19*
X160909000Y-69088000D02*
X167767000Y-69088000D01*
D16*
X164592000Y-70485000D02*
X164084000Y-70485000D01*
D19*
X163703000Y-71120000D02*
X163322000Y-71120000D01*
X167767000Y-73152000D02*
X160909000Y-73152000D01*
D16*
X164973000Y-71120000D02*
X164973000Y-70485000D01*
X164084000Y-70485000D02*
X164084000Y-71755000D01*
X164592000Y-71755000D02*
X164592000Y-70485000D01*
D19*
X169447100Y-69977000D02*
G75*
G03*
X167767000Y-69087999I-1680052J-1142998D01*
G01*
D16*
X158623000Y-73279000D02*
G75*
G03*
X158877000Y-73533000I254000J0D01*
G01*
X170053000Y-68961000D02*
G75*
G03*
X169799000Y-68707000I-254000J0D01*
G01*
D19*
X160909000Y-69088001D02*
G75*
G03*
X159229000Y-69977101I120J-2031999D01*
G01*
D16*
X158877000Y-68707000D02*
G75*
G03*
X158623000Y-68961000I0J-254000D01*
G01*
D19*
X159228898Y-72263000D02*
G75*
G03*
X160909000Y-73152000I1680052J1143000D01*
G01*
X167767000Y-72390000D02*
G75*
G03*
X168320600Y-72263000I19J1270002D01*
G01*
D16*
X169799000Y-73533000D02*
G75*
G03*
X170053000Y-73279000I0J254000D01*
G01*
D19*
X168320600Y-69977000D02*
G75*
G03*
X167767000Y-69850000I-553581J-1143002D01*
G01*
X160909000Y-69849988D02*
G75*
G03*
X160355400Y-69977000I100J-1270412D01*
G01*
X160355404Y-72262992D02*
G75*
G03*
X160909000Y-72390000I553596J1142992D01*
G01*
X167767000Y-73152101D02*
G75*
G03*
X169447100Y-72263000I-75J2032102D01*
G01*
D16*
%TO.C,JP5*%
X151130000Y-58801000D02*
X151130000Y-57531000D01*
X151765000Y-56896000D02*
X151130000Y-56261000D01*
X153670000Y-57531000D02*
X153670000Y-58801000D01*
X151130000Y-57531000D02*
X151765000Y-56896000D01*
X153670000Y-54991000D02*
X153670000Y-56261000D01*
X151765000Y-59436000D02*
X153035000Y-59436000D01*
X151130000Y-58801000D02*
X151765000Y-59436000D01*
X151130000Y-56261000D02*
X151130000Y-54991000D01*
X153035000Y-56896000D02*
X153670000Y-57531000D01*
X151765000Y-54356000D02*
X153035000Y-54356000D01*
X151130000Y-54991000D02*
X151765000Y-54356000D01*
X153670000Y-56261000D02*
X153035000Y-56896000D01*
X153035000Y-54356000D02*
X153670000Y-54991000D01*
X151765000Y-56896000D02*
X153035000Y-56896000D01*
X153035000Y-59436000D02*
X153670000Y-58801000D01*
%TO.C,JP1*%
X196088000Y-89027000D02*
X196723000Y-88392000D01*
X197993000Y-90932000D02*
X198628000Y-91567000D01*
X198628000Y-92837000D02*
X197993000Y-93472000D01*
X196088000Y-87757000D02*
X196088000Y-86487000D01*
X197993000Y-88392000D02*
X198628000Y-89027000D01*
X196088000Y-90297000D02*
X196088000Y-89027000D01*
X196723000Y-90932000D02*
X196088000Y-90297000D01*
X198628000Y-94107000D02*
X198628000Y-95377000D01*
X197993000Y-93472000D02*
X196723000Y-93472000D01*
X198628000Y-86487000D02*
X198628000Y-87757000D01*
X196088000Y-92837000D02*
X196088000Y-91567000D01*
X196088000Y-95377000D02*
X196088000Y-94107000D01*
X196723000Y-85852000D02*
X196088000Y-86487000D01*
X198628000Y-94107000D02*
X197993000Y-93472000D01*
X198628000Y-89027000D02*
X198628000Y-90297000D01*
X197993000Y-96012000D02*
X196723000Y-96012000D01*
X196723000Y-93472000D02*
X196088000Y-94107000D01*
X198628000Y-87757000D02*
X197993000Y-88392000D01*
X198628000Y-91567000D02*
X198628000Y-92837000D01*
X196723000Y-88392000D02*
X196088000Y-87757000D01*
X196088000Y-91567000D02*
X196723000Y-90932000D01*
X197993000Y-85852000D02*
X196723000Y-85852000D01*
X198628000Y-86487000D02*
X197993000Y-85852000D01*
X197993000Y-90932000D02*
X196723000Y-90932000D01*
X196723000Y-96012000D02*
X196088000Y-95377000D01*
X196723000Y-93472000D02*
X196088000Y-92837000D01*
X198628000Y-90297000D02*
X197993000Y-90932000D01*
X197993000Y-88392000D02*
X196723000Y-88392000D01*
X198628000Y-95377000D02*
X197993000Y-96012000D01*
%TO.C,JP8*%
X117348000Y-85979000D02*
X117983000Y-86614000D01*
X117983000Y-84074000D02*
X117348000Y-83439000D01*
X117348000Y-85979000D02*
X117348000Y-84709000D01*
X117983000Y-81534000D02*
X119253000Y-81534000D01*
X117983000Y-84074000D02*
X119253000Y-84074000D01*
X119253000Y-86614000D02*
X119888000Y-85979000D01*
X117348000Y-83439000D02*
X117348000Y-82169000D01*
X119253000Y-84074000D02*
X119888000Y-84709000D01*
X119253000Y-81534000D02*
X119888000Y-82169000D01*
X117348000Y-84709000D02*
X117983000Y-84074000D01*
X119888000Y-82169000D02*
X119888000Y-83439000D01*
X117348000Y-82169000D02*
X117983000Y-81534000D01*
X119888000Y-84709000D02*
X119888000Y-85979000D01*
X117983000Y-86614000D02*
X119253000Y-86614000D01*
X119888000Y-83439000D02*
X119253000Y-84074000D01*
%TO.C,J3*%
X184658000Y-97155000D02*
X184023000Y-97790000D01*
X181483000Y-97790000D02*
X180213000Y-97790000D01*
X180213000Y-95250000D02*
X181483000Y-95250000D01*
X180213000Y-95250000D02*
X179578000Y-95885000D01*
X176403000Y-95250000D02*
X177038000Y-95885000D01*
X177038000Y-97155000D02*
X176403000Y-97790000D01*
X177673000Y-97790000D02*
X177038000Y-97155000D01*
X186563000Y-97790000D02*
X185293000Y-97790000D01*
X172593000Y-95250000D02*
X171958000Y-95885000D01*
X174498000Y-95885000D02*
X174498000Y-97155000D01*
X187198000Y-97155000D02*
X186563000Y-97790000D01*
X171958000Y-97155000D02*
X172593000Y-97790000D01*
X185293000Y-95250000D02*
X184658000Y-95885000D01*
X182753000Y-97790000D02*
X182118000Y-97155000D01*
X178943000Y-95250000D02*
X179578000Y-95885000D01*
X173863000Y-97790000D02*
X172593000Y-97790000D01*
X171958000Y-95885000D02*
X171958000Y-97155000D01*
X184658000Y-97155000D02*
X185293000Y-97790000D01*
X187198000Y-95885000D02*
X187198000Y-97155000D01*
X174498000Y-97155000D02*
X173863000Y-97790000D01*
X181483000Y-95250000D02*
X182118000Y-95885000D01*
X177673000Y-95250000D02*
X178943000Y-95250000D01*
X184023000Y-97790000D02*
X182753000Y-97790000D01*
X184023000Y-95250000D02*
X184658000Y-95885000D01*
X173863000Y-95250000D02*
X174498000Y-95885000D01*
X177038000Y-95885000D02*
X177038000Y-97155000D01*
X182753000Y-95250000D02*
X184023000Y-95250000D01*
X185293000Y-95250000D02*
X186563000Y-95250000D01*
X186563000Y-95250000D02*
X187198000Y-95885000D01*
X179578000Y-97155000D02*
X180213000Y-97790000D01*
X179578000Y-95885000D02*
X179578000Y-97155000D01*
X172593000Y-95250000D02*
X173863000Y-95250000D01*
X184658000Y-95885000D02*
X184658000Y-97155000D01*
X179578000Y-97155000D02*
X178943000Y-97790000D01*
X178943000Y-97790000D02*
X177673000Y-97790000D01*
X174498000Y-95885000D02*
X175133000Y-95250000D01*
X176403000Y-97790000D02*
X175133000Y-97790000D01*
X177038000Y-95885000D02*
X177673000Y-95250000D01*
X175133000Y-97790000D02*
X174498000Y-97155000D01*
X175133000Y-95250000D02*
X176403000Y-95250000D01*
X182118000Y-97155000D02*
X181483000Y-97790000D01*
X182118000Y-95885000D02*
X182753000Y-95250000D01*
X182118000Y-95885000D02*
X182118000Y-97155000D01*
D17*
%TO.C,SW2*%
X188706000Y-67564000D02*
X191786000Y-67564000D01*
X191786000Y-72644000D02*
X188706000Y-72644000D01*
X187706000Y-71344000D02*
X187706000Y-68834000D01*
X192786000Y-68864000D02*
X192786000Y-71344000D01*
X191516000Y-70104000D02*
G75*
G03*
X191516000Y-70104000I-1270000J0D01*
G01*
D16*
%TO.C,JP6*%
X124841000Y-50292000D02*
X125476000Y-50927000D01*
X125476000Y-52197000D02*
X125476000Y-50927000D01*
X126111000Y-52832000D02*
X125476000Y-52197000D01*
X126111000Y-50292000D02*
X127381000Y-50292000D01*
X128016000Y-52197000D02*
X128016000Y-50927000D01*
X125476000Y-52197000D02*
X124841000Y-52832000D01*
X128016000Y-50927000D02*
X127381000Y-50292000D01*
X127381000Y-52832000D02*
X128016000Y-52197000D01*
X122936000Y-50927000D02*
X123571000Y-50292000D01*
X124841000Y-52832000D02*
X123571000Y-52832000D01*
X127381000Y-52832000D02*
X126111000Y-52832000D01*
X123571000Y-50292000D02*
X124841000Y-50292000D01*
X125476000Y-50927000D02*
X126111000Y-50292000D01*
X122936000Y-52197000D02*
X122936000Y-50927000D01*
X123571000Y-52832000D02*
X122936000Y-52197000D01*
%TO.C,U4*%
X189738000Y-78486000D02*
X152654000Y-78486000D01*
X189738000Y-84074000D02*
X152654000Y-84074000D01*
X189738000Y-80645000D02*
X189738000Y-78486000D01*
X189738000Y-84074000D02*
X189738000Y-81915000D01*
X152654000Y-84074000D02*
X152654000Y-78486000D01*
X189738000Y-80645000D02*
G75*
G03*
X189738000Y-81915000I0J-635000D01*
G01*
D17*
%TO.C,D2*%
X134427000Y-63738000D02*
X135450000Y-62738000D01*
X135450000Y-62738000D02*
X134427000Y-61738000D01*
D12*
X136880600Y-64643000D02*
X132359400Y-64643000D01*
X136880600Y-60833000D02*
X132359400Y-60833000D01*
D17*
X134427000Y-61738000D02*
X134427000Y-63738000D01*
D16*
%TO.C,JP9*%
X118999000Y-75438000D02*
X117729000Y-75438000D01*
X117094000Y-77343000D02*
X117094000Y-76073000D01*
X119634000Y-76073000D02*
X119634000Y-77343000D01*
X118999000Y-80518000D02*
X117729000Y-80518000D01*
X117729000Y-75438000D02*
X117094000Y-76073000D01*
X119634000Y-76073000D02*
X118999000Y-75438000D01*
X117094000Y-78613000D02*
X117729000Y-77978000D01*
X119634000Y-77343000D02*
X118999000Y-77978000D01*
X119634000Y-79883000D02*
X118999000Y-80518000D01*
X117729000Y-77978000D02*
X117094000Y-77343000D01*
X119634000Y-78613000D02*
X119634000Y-79883000D01*
X118999000Y-77978000D02*
X119634000Y-78613000D01*
X117094000Y-79883000D02*
X117094000Y-78613000D01*
X117729000Y-80518000D02*
X117094000Y-79883000D01*
X118999000Y-77978000D02*
X117729000Y-77978000D01*
%TO.C,JP3*%
X135585200Y-100812600D02*
X135585200Y-99542600D01*
X132410200Y-101447600D02*
X131140200Y-101447600D01*
X129870200Y-101447600D02*
X128600200Y-101447600D01*
X134950200Y-101447600D02*
X133680200Y-101447600D01*
X127965200Y-100812600D02*
X127965200Y-99542600D01*
X129870200Y-98907600D02*
X130505200Y-99542600D01*
X130505200Y-100812600D02*
X130505200Y-99542600D01*
X133680200Y-98907600D02*
X134950200Y-98907600D01*
X133045200Y-100812600D02*
X133045200Y-99542600D01*
X131140200Y-98907600D02*
X132410200Y-98907600D01*
X127330200Y-101447600D02*
X126060200Y-101447600D01*
X131140200Y-101447600D02*
X130505200Y-100812600D01*
X133045200Y-100812600D02*
X132410200Y-101447600D01*
X134950200Y-101447600D02*
X135585200Y-100812600D01*
X125425200Y-99542600D02*
X126060200Y-98907600D01*
X127965200Y-99542600D02*
X128600200Y-98907600D01*
X126060200Y-101447600D02*
X125425200Y-100812600D01*
X125425200Y-100812600D02*
X125425200Y-99542600D01*
X128600200Y-101447600D02*
X127965200Y-100812600D01*
X133045200Y-99542600D02*
X133680200Y-98907600D01*
X130505200Y-100812600D02*
X129870200Y-101447600D01*
X128600200Y-98907600D02*
X129870200Y-98907600D01*
X132410200Y-98907600D02*
X133045200Y-99542600D01*
X130505200Y-99542600D02*
X131140200Y-98907600D01*
X127330200Y-101447600D02*
X127965200Y-100812600D01*
X133680200Y-101447600D02*
X133045200Y-100812600D01*
X127965200Y-99542600D02*
X127330200Y-98907600D01*
X126060200Y-98907600D02*
X127330200Y-98907600D01*
X135585200Y-99542600D02*
X134950200Y-98907600D01*
%TO.C,JP7*%
X116078000Y-100965000D02*
X116713000Y-101600000D01*
X116713000Y-99060000D02*
X116078000Y-99695000D01*
X121158000Y-99695000D02*
X121158000Y-100965000D01*
X116713000Y-99060000D02*
X117983000Y-99060000D01*
X121158000Y-100965000D02*
X120523000Y-101600000D01*
X118618000Y-100965000D02*
X117983000Y-101600000D01*
X117983000Y-101600000D02*
X116713000Y-101600000D01*
X120523000Y-101600000D02*
X119253000Y-101600000D01*
X117983000Y-99060000D02*
X118618000Y-99695000D01*
X116078000Y-99695000D02*
X116078000Y-100965000D01*
X118618000Y-99695000D02*
X118618000Y-100965000D01*
X119253000Y-101600000D02*
X118618000Y-100965000D01*
X120523000Y-99060000D02*
X121158000Y-99695000D01*
X119253000Y-99060000D02*
X120523000Y-99060000D01*
X118618000Y-99695000D02*
X119253000Y-99060000D01*
D17*
%TO.C,J2*%
X110695500Y-67121300D02*
X115995500Y-67121300D01*
X121395500Y-67121300D02*
X120695500Y-67121300D01*
X110695500Y-58121300D02*
X110695500Y-67121300D01*
X121395500Y-58121300D02*
X121395500Y-60221300D01*
X110695500Y-58121300D02*
X121395500Y-58121300D01*
X121395500Y-67121300D02*
X121395500Y-65021300D01*
%TD*%
%LPC*%
D20*
%TO.C,TP3*%
X178308000Y-101600000D03*
%TD*%
D21*
%TO.C,JP2*%
X188976000Y-59944000D03*
X188976000Y-57404000D03*
X188976000Y-54864000D03*
%TD*%
D22*
%TO.C,R3*%
X179313800Y-91998800D03*
X181213800Y-91998800D03*
%TD*%
D23*
%TO.C,J1*%
X159512000Y-90932000D03*
X162052000Y-90932000D03*
X159512000Y-93472000D03*
X162052000Y-93472000D03*
X159512000Y-96012000D03*
X162052000Y-96012000D03*
%TD*%
D24*
%TO.C,JP4*%
X140716000Y-100076000D03*
X143256000Y-100076000D03*
X145796000Y-100076000D03*
X148336000Y-100076000D03*
%TD*%
D25*
%TO.C,C6*%
X143780000Y-62738000D03*
X145780000Y-62738000D03*
%TD*%
%TO.C,C7*%
X127270000Y-86614000D03*
X129270000Y-86614000D03*
%TD*%
D26*
%TO.C,C10*%
X124834800Y-57556400D03*
X122834800Y-57556400D03*
%TD*%
D20*
%TO.C,TP4*%
X134874000Y-51562000D03*
%TD*%
%TO.C,TP5*%
X154432000Y-100838000D03*
%TD*%
D25*
%TO.C,C2*%
X169418000Y-64770000D03*
X171418000Y-64770000D03*
%TD*%
D27*
%TO.C,H3*%
X110500000Y-101500000D03*
%TD*%
D28*
%TO.C,R1*%
X161478000Y-100711000D03*
X159578000Y-100711000D03*
%TD*%
D26*
%TO.C,C1*%
X164363400Y-64744600D03*
X162363400Y-64744600D03*
%TD*%
D29*
%TO.C,D1*%
X123224000Y-71882000D03*
X121124000Y-71882000D03*
%TD*%
D30*
%TO.C,SW1*%
X195580000Y-77597000D03*
X200660000Y-77597000D03*
X195580000Y-81407000D03*
X200660000Y-81407000D03*
%TD*%
D26*
%TO.C,C9*%
X129302000Y-89077800D03*
X127302000Y-89077800D03*
%TD*%
D31*
%TO.C,U8*%
X144516600Y-89077800D03*
D32*
X144516600Y-86537800D03*
X144516600Y-83997800D03*
X144516600Y-81457800D03*
X144516600Y-78917800D03*
X144516600Y-76377800D03*
X144516600Y-73837800D03*
X144516600Y-71297800D03*
X131816600Y-71297800D03*
X131816600Y-73837800D03*
X131816600Y-76377800D03*
X131816600Y-78917800D03*
X131816600Y-81457800D03*
X131816600Y-83997800D03*
X131816600Y-86537800D03*
X131816600Y-89077800D03*
%TD*%
D33*
%TO.C,Y1*%
X169164000Y-71120000D03*
X159512000Y-71120000D03*
%TD*%
D34*
%TO.C,C5*%
X167386000Y-88392000D03*
X167386000Y-90392000D03*
%TD*%
%TO.C,C3*%
X169926000Y-87884000D03*
X169926000Y-89884000D03*
%TD*%
D21*
%TO.C,JP5*%
X152400000Y-58166000D03*
X152400000Y-55626000D03*
%TD*%
D27*
%TO.C,H1*%
X199750000Y-51250000D03*
%TD*%
D21*
%TO.C,JP1*%
X197358000Y-87122000D03*
X197358000Y-89662000D03*
X197358000Y-92202000D03*
X197358000Y-94742000D03*
%TD*%
D22*
%TO.C,R6*%
X140716000Y-53848000D03*
X142616000Y-53848000D03*
%TD*%
D21*
%TO.C,JP8*%
X118618000Y-85344000D03*
X118618000Y-82804000D03*
%TD*%
D24*
%TO.C,J3*%
X173228000Y-96520000D03*
X175768000Y-96520000D03*
X178308000Y-96520000D03*
X180848000Y-96520000D03*
X183388000Y-96520000D03*
X185928000Y-96520000D03*
%TD*%
D30*
%TO.C,SW2*%
X187706000Y-68199000D03*
X192786000Y-68199000D03*
X187706000Y-72009000D03*
X192786000Y-72009000D03*
%TD*%
D35*
%TO.C,C4*%
X181864000Y-56880000D03*
X181864000Y-54880000D03*
%TD*%
D28*
%TO.C,R4*%
X199832000Y-70612000D03*
X197932000Y-70612000D03*
%TD*%
D24*
%TO.C,JP6*%
X126746000Y-51562000D03*
X124206000Y-51562000D03*
%TD*%
D27*
%TO.C,H2*%
X110500000Y-51250000D03*
%TD*%
D22*
%TO.C,R2*%
X182438000Y-101600000D03*
X184338000Y-101600000D03*
%TD*%
D20*
%TO.C,TP1*%
X188976000Y-101346000D03*
%TD*%
D27*
%TO.C,H4*%
X200406000Y-102500000D03*
%TD*%
D36*
%TO.C,U4*%
X187706000Y-77470000D03*
X185166000Y-77470000D03*
X182626000Y-77470000D03*
X180086000Y-77470000D03*
X177546000Y-77470000D03*
X175006000Y-77470000D03*
X172466000Y-77470000D03*
X169926000Y-77470000D03*
X167386000Y-77470000D03*
X164846000Y-77470000D03*
X162306000Y-77470000D03*
X159766000Y-77470000D03*
X157226000Y-77470000D03*
X154686000Y-77470000D03*
X154686000Y-85090000D03*
X157226000Y-85090000D03*
X159766000Y-85090000D03*
X162306000Y-85090000D03*
X164846000Y-85090000D03*
X167386000Y-85090000D03*
X169926000Y-85090000D03*
X172466000Y-85090000D03*
X175006000Y-85090000D03*
X177546000Y-85090000D03*
X180086000Y-85090000D03*
X182626000Y-85090000D03*
X185166000Y-85090000D03*
X187706000Y-85090000D03*
%TD*%
D20*
%TO.C,TP2*%
X189484000Y-91948000D03*
%TD*%
D37*
%TO.C,D2*%
X132420000Y-62738000D03*
X136820000Y-62738000D03*
%TD*%
D21*
%TO.C,JP9*%
X118364000Y-76708000D03*
X118364000Y-79248000D03*
%TD*%
D24*
%TO.C,JP3*%
X134315200Y-100177600D03*
X131775200Y-100177600D03*
X129235200Y-100177600D03*
X126695200Y-100177600D03*
%TD*%
%TO.C,JP7*%
X117348000Y-100330000D03*
X119888000Y-100330000D03*
%TD*%
D38*
%TO.C,J2*%
X115395500Y-62621300D03*
X118395500Y-67321300D03*
X121395500Y-62621300D03*
%TD*%
M02*
