%TF.GenerationSoftware,KiCad,Pcbnew,(6.0.8)*%
%TF.CreationDate,2022-11-16T21:32:55-08:00*%
%TF.ProjectId,T5Cad,54354361-642e-46b6-9963-61645f706362,2.3.1*%
%TF.SameCoordinates,Original*%
%TF.FileFunction,Soldermask,Bot*%
%TF.FilePolarity,Negative*%
%FSLAX46Y46*%
G04 Gerber Fmt 4.6, Leading zero omitted, Abs format (unit mm)*
G04 Created by KiCad (PCBNEW (6.0.8)) date 2022-11-16 21:32:55*
%MOMM*%
%LPD*%
G01*
G04 APERTURE LIST*
G04 Aperture macros list*
%AMRoundRect*
0 Rectangle with rounded corners*
0 $1 Rounding radius*
0 $2 $3 $4 $5 $6 $7 $8 $9 X,Y pos of 4 corners*
0 Add a 4 corners polygon primitive as box body*
4,1,4,$2,$3,$4,$5,$6,$7,$8,$9,$2,$3,0*
0 Add four circle primitives for the rounded corners*
1,1,$1+$1,$2,$3*
1,1,$1+$1,$4,$5*
1,1,$1+$1,$6,$7*
1,1,$1+$1,$8,$9*
0 Add four rect primitives between the rounded corners*
20,1,$1+$1,$2,$3,$4,$5,0*
20,1,$1+$1,$4,$5,$6,$7,0*
20,1,$1+$1,$6,$7,$8,$9,0*
20,1,$1+$1,$8,$9,$2,$3,0*%
%AMFreePoly0*
4,1,25,0.506863,1.161696,0.518986,1.151342,1.151342,0.518986,1.179849,0.463038,1.181100,0.447144,1.181100,-0.447144,1.161696,-0.506863,1.151342,-0.518986,0.518986,-1.151342,0.463038,-1.179849,0.447144,-1.181100,-0.447144,-1.181100,-0.506863,-1.161696,-0.518986,-1.151342,-1.151342,-0.518986,-1.179849,-0.463038,-1.181100,-0.447144,-1.181100,0.447144,-1.161696,0.506863,-1.151342,0.518986,
-0.518986,1.151342,-0.463038,1.179849,-0.447144,1.181100,0.447144,1.181100,0.506863,1.161696,0.506863,1.161696,$1*%
%AMFreePoly1*
4,1,25,0.380735,0.857196,0.392858,0.846842,0.846842,0.392858,0.875349,0.336910,0.876600,0.321016,0.876600,-0.321016,0.857196,-0.380735,0.846842,-0.392858,0.392858,-0.846842,0.336910,-0.875349,0.321016,-0.876600,-0.321016,-0.876600,-0.380735,-0.857196,-0.392858,-0.846842,-0.846842,-0.392858,-0.875349,-0.336910,-0.876600,-0.321016,-0.876600,0.321016,-0.857196,0.380735,-0.846842,0.392858,
-0.392858,0.846842,-0.336910,0.875349,-0.321016,0.876600,0.321016,0.876600,0.380735,0.857196,0.380735,0.857196,$1*%
G04 Aperture macros list end*
%ADD10FreePoly0,0.000000*%
%ADD11O,3.251200X1.727200*%
%ADD12FreePoly1,270.000000*%
%ADD13O,1.727200X3.251200*%
%ADD14C,3.403600*%
%ADD15RoundRect,0.101600X0.765000X0.765000X-0.765000X0.765000X-0.765000X-0.765000X0.765000X-0.765000X0*%
%ADD16C,1.733200*%
%ADD17O,1.625600X3.048000*%
%ADD18C,4.521200*%
G04 APERTURE END LIST*
D10*
%TO.C,TP3*%
X178308000Y-101600000D03*
%TD*%
D11*
%TO.C,JP2*%
X188976000Y-59944000D03*
X188976000Y-57404000D03*
X188976000Y-54864000D03*
%TD*%
D12*
%TO.C,J1*%
X159512000Y-90932000D03*
X162052000Y-90932000D03*
X159512000Y-93472000D03*
X162052000Y-93472000D03*
X159512000Y-96012000D03*
X162052000Y-96012000D03*
%TD*%
D13*
%TO.C,JP4*%
X140716000Y-100076000D03*
X143256000Y-100076000D03*
X145796000Y-100076000D03*
X148336000Y-100076000D03*
%TD*%
D10*
%TO.C,TP4*%
X134874000Y-51562000D03*
%TD*%
%TO.C,TP5*%
X154432000Y-100838000D03*
%TD*%
D14*
%TO.C,H3*%
X110500000Y-101500000D03*
%TD*%
D15*
%TO.C,U8*%
X144516600Y-89077800D03*
D16*
X144516600Y-86537800D03*
X144516600Y-83997800D03*
X144516600Y-81457800D03*
X144516600Y-78917800D03*
X144516600Y-76377800D03*
X144516600Y-73837800D03*
X144516600Y-71297800D03*
X131816600Y-71297800D03*
X131816600Y-73837800D03*
X131816600Y-76377800D03*
X131816600Y-78917800D03*
X131816600Y-81457800D03*
X131816600Y-83997800D03*
X131816600Y-86537800D03*
X131816600Y-89077800D03*
%TD*%
D11*
%TO.C,JP5*%
X152400000Y-58166000D03*
X152400000Y-55626000D03*
%TD*%
D14*
%TO.C,H1*%
X199750000Y-51250000D03*
%TD*%
D11*
%TO.C,JP1*%
X197358000Y-87122000D03*
X197358000Y-89662000D03*
X197358000Y-92202000D03*
X197358000Y-94742000D03*
%TD*%
%TO.C,JP8*%
X118618000Y-85344000D03*
X118618000Y-82804000D03*
%TD*%
D13*
%TO.C,J3*%
X173228000Y-96520000D03*
X175768000Y-96520000D03*
X178308000Y-96520000D03*
X180848000Y-96520000D03*
X183388000Y-96520000D03*
X185928000Y-96520000D03*
%TD*%
%TO.C,JP6*%
X126746000Y-51562000D03*
X124206000Y-51562000D03*
%TD*%
D14*
%TO.C,H2*%
X110500000Y-51250000D03*
%TD*%
D10*
%TO.C,TP1*%
X188976000Y-101346000D03*
%TD*%
D14*
%TO.C,H4*%
X200406000Y-102500000D03*
%TD*%
D17*
%TO.C,U4*%
X187706000Y-77470000D03*
X185166000Y-77470000D03*
X182626000Y-77470000D03*
X180086000Y-77470000D03*
X177546000Y-77470000D03*
X175006000Y-77470000D03*
X172466000Y-77470000D03*
X169926000Y-77470000D03*
X167386000Y-77470000D03*
X164846000Y-77470000D03*
X162306000Y-77470000D03*
X159766000Y-77470000D03*
X157226000Y-77470000D03*
X154686000Y-77470000D03*
X154686000Y-85090000D03*
X157226000Y-85090000D03*
X159766000Y-85090000D03*
X162306000Y-85090000D03*
X164846000Y-85090000D03*
X167386000Y-85090000D03*
X169926000Y-85090000D03*
X172466000Y-85090000D03*
X175006000Y-85090000D03*
X177546000Y-85090000D03*
X180086000Y-85090000D03*
X182626000Y-85090000D03*
X185166000Y-85090000D03*
X187706000Y-85090000D03*
%TD*%
D10*
%TO.C,TP2*%
X189484000Y-91948000D03*
%TD*%
D11*
%TO.C,JP9*%
X118364000Y-76708000D03*
X118364000Y-79248000D03*
%TD*%
D13*
%TO.C,JP3*%
X134315200Y-100177600D03*
X131775200Y-100177600D03*
X129235200Y-100177600D03*
X126695200Y-100177600D03*
%TD*%
%TO.C,JP7*%
X117348000Y-100330000D03*
X119888000Y-100330000D03*
%TD*%
D18*
%TO.C,J2*%
X115395500Y-62621300D03*
X118395500Y-67321300D03*
X121395500Y-62621300D03*
%TD*%
M02*
